<?xml version="1.0" encoding="UTF-8" standalone="no"?>
<!-- Created with Inkscape (http://www.inkscape.org/) -->

<svg
   width="285.88419mm"
   height="142.57979mm"
   viewBox="0 0 285.88419 142.57979"
   version="1.1"
   id="svg5"
   xml:space="preserve"
   inkscape:version="1.2.1 (9c6d41e410, 2022-07-14)"
   sodipodi:docname="de-5000.svg"
   inkscape:export-filename="de-5000-p.svg"
   inkscape:export-xdpi="96"
   inkscape:export-ydpi="96"
   xmlns:inkscape="http://www.inkscape.org/namespaces/inkscape"
   xmlns:sodipodi="http://sodipodi.sourceforge.net/DTD/sodipodi-0.dtd"
   xmlns="http://www.w3.org/2000/svg"
   xmlns:svg="http://www.w3.org/2000/svg"><sodipodi:namedview
     id="namedview7"
     pagecolor="#999999"
     bordercolor="#000000"
     borderopacity="0.25"
     inkscape:showpageshadow="2"
     inkscape:pageopacity="0"
     inkscape:pagecheckerboard="0"
     inkscape:deskcolor="#d1d1d1"
     inkscape:document-units="mm"
     showgrid="false"
     inkscape:zoom="1.0544998"
     inkscape:cx="358.93796"
     inkscape:cy="223.32864"
     inkscape:window-width="1920"
     inkscape:window-height="1018"
     inkscape:window-x="-6"
     inkscape:window-y="-6"
     inkscape:window-maximized="1"
     inkscape:current-layer="g9682"
     showguides="true"><sodipodi:guide
       position="106.45162,71.126362"
       orientation="0,-1"
       id="guide1437"
       inkscape:locked="false" /><sodipodi:guide
       position="96.870968,1.5779702"
       orientation="0,-1"
       id="guide1554"
       inkscape:locked="false" /><sodipodi:guide
       position="285.4882,58.173665"
       orientation="1,0"
       id="guide4776"
       inkscape:locked="false" /></sodipodi:namedview><defs
     id="defs2"><rect
       x="37.551434"
       y="237.37871"
       width="162.27583"
       height="67.056137"
       id="rect1447" /><rect
       x="152.88799"
       y="305.77597"
       width="60.350521"
       height="59.009399"
       id="rect1441" /><rect
       x="45.598171"
       y="148.86462"
       width="178.36932"
       height="71.079506"
       id="rect1051" /></defs><g
     inkscape:label="Layer 1"
     inkscape:groupmode="layer"
     id="layer1"
     transform="translate(-9.9354839,-8.7401216)"
     style="display:inline"><g
       id="g1611"
       inkscape:label="primary"
       style="display:inline"><g
         id="g4139"
         inkscape:label="digits"><g
           style="stroke:#ffffff;stroke-width:0.25"
           id="g42"
           transform="matrix(3.941685,0,0,3.941685,42.907798,79.669997)"
           inkscape:label="5"><path
             id="b"
             d="M 7.75,9 6.8058742,8 7.1411192,2 8.1969934,1 9.1411192,2 8.8058742,8 Z"
             sodipodi:nodetypes="ccccccc"
             style="fill:#1a1a1a"
             inkscape:label="b" /><path
             id="c"
             d="M 7.3030066,17 6.3588808,16 6.6941258,10 7.75,9 l 0.9441258,1 -0.335245,6 z"
             sodipodi:nodetypes="ccccccc"
             style="fill:#1a1a1a"
             inkscape:label="c" /><rect
             style="fill:#1a1a1a;stroke-width:0.264672"
             id="rect1160"
             width="5.6774192"
             height="8.5218515"
             x="126.31216"
             y="131.02348"
             transform="matrix(0.23622048,0,-0.00865599,0.23606183,-19.72695,-14.888748)"
             inkscape:label="dot" /></g><g
           style="display:inline;fill:#1a1a1a;stroke:#ffffff;stroke-width:0.249893;stroke-dasharray:none;stroke-opacity:1"
           id="g1179"
           transform="matrix(3.941685,0,0,3.941685,89.080175,79.669997)"
           inkscape:label="4"><path
             id="path1163"
             d="M 8.1969934,1 7.1411192,2 h -4.75 L 1.4469933,1 2.5028675,0 h 4.75 z"
             sodipodi:nodetypes="ccccccc"
             inkscape:label="a"
             style="fill:#1a1a1a" /><path
             id="path1165"
             d="M 7.75,9 6.8058742,8 7.1411192,2 8.1969934,1 9.1411192,2 8.8058742,8 Z"
             sodipodi:nodetypes="ccccccc"
             inkscape:label="b"
             style="fill:#1a1a1a" /><path
             id="path1167"
             d="M 7.3030066,17 6.3588808,16 6.6941258,10 7.75,9 l 0.9441258,1 -0.335245,6 z"
             sodipodi:nodetypes="ccccccc"
             inkscape:label="c"
             style="fill:#1a1a1a" /><path
             id="path1169"
             d="M 0.55300661,17 1.6088808,16 h 4.75 l 0.9441258,1 -1.0558741,1 h -4.75 z"
             sodipodi:nodetypes="ccccccc"
             inkscape:label="d"
             style="fill:#1a1a1a" /><path
             id="path1171"
             d="m 1,9 0.9441258,1 -0.335245,6 -1.05587419,1 -0.94412579,-1 0.33524502,-6 z"
             inkscape:label="e"
             style="fill:#1a1a1a" /><path
             id="path1173"
             d="M 1.4469933,1 2.3911192,2 2.0558742,8 1,9 0.05587416,8 0.39111918,2 Z"
             inkscape:label="f"
             style="fill:#1a1a1a" /><path
             id="path1175"
             d="m 7.75,9 -1.0558742,1 h -4.75 L 1,9 2.0558742,8 h 4.75 z"
             sodipodi:nodetypes="ccccccc"
             inkscape:label="g"
             style="fill:#1a1a1a" /><rect
             style="fill:#1a1a1a"
             id="rect1177"
             width="5.6774192"
             height="8.5218515"
             x="126.31216"
             y="131.02348"
             transform="matrix(0.23622048,0,-0.00865599,0.23606183,-19.72695,-14.888748)"
             inkscape:label="dot" /></g><g
           style="fill:#1a1a1a;stroke:#ffffff;stroke-width:0.25"
           id="g1197"
           transform="matrix(3.941685,0,0,3.941685,135.25256,79.669997)"
           inkscape:label="3"><path
             id="path1181"
             d="M 8.1969934,1 7.1411192,2 h -4.75 L 1.4469933,1 2.5028675,0 h 4.75 z"
             sodipodi:nodetypes="ccccccc"
             inkscape:label="a"
             style="fill:#1a1a1a" /><path
             id="path1183"
             d="M 7.75,9 6.8058742,8 7.1411192,2 8.1969934,1 9.1411192,2 8.8058742,8 Z"
             sodipodi:nodetypes="ccccccc"
             inkscape:label="b"
             style="fill:#1a1a1a" /><path
             id="path1185"
             d="M 7.3030066,17 6.3588808,16 6.6941258,10 7.75,9 l 0.9441258,1 -0.335245,6 z"
             sodipodi:nodetypes="ccccccc"
             inkscape:label="c"
             style="fill:#1a1a1a" /><path
             id="path1187"
             d="M 0.55300661,17 1.6088808,16 h 4.75 l 0.9441258,1 -1.0558741,1 h -4.75 z"
             sodipodi:nodetypes="ccccccc"
             inkscape:label="d"
             style="fill:#1a1a1a" /><path
             id="path1189"
             d="m 1,9 0.9441258,1 -0.335245,6 -1.05587419,1 -0.94412579,-1 0.33524502,-6 z"
             inkscape:label="e"
             style="fill:#1a1a1a" /><path
             id="path1191"
             d="M 1.4469933,1 2.3911192,2 2.0558742,8 1,9 0.05587416,8 0.39111918,2 Z"
             inkscape:label="f"
             style="fill:#1a1a1a" /><path
             id="path1193"
             d="m 7.75,9 -1.0558742,1 h -4.75 L 1,9 2.0558742,8 h 4.75 z"
             sodipodi:nodetypes="ccccccc"
             inkscape:label="g"
             style="fill:#1a1a1a" /><rect
             style="fill:#1a1a1a;stroke-width:0.264672"
             id="rect1195"
             width="5.6774192"
             height="8.5218515"
             x="126.31216"
             y="131.02348"
             transform="matrix(0.23622048,0,-0.00865599,0.23606183,-19.72695,-14.888748)"
             inkscape:label="dot" /></g><g
           style="fill:#1a1a1a;stroke:#ffffff;stroke-width:0.25"
           id="g1215"
           transform="matrix(3.941685,0,0,3.941685,181.42494,79.669997)"
           inkscape:label="2"><path
             id="path1199"
             d="M 8.1969934,1 7.1411192,2 h -4.75 L 1.4469933,1 2.5028675,0 h 4.75 z"
             sodipodi:nodetypes="ccccccc"
             inkscape:label="a"
             style="fill:#1a1a1a" /><path
             id="path1201"
             d="M 7.75,9 6.8058742,8 7.1411192,2 8.1969934,1 9.1411192,2 8.8058742,8 Z"
             sodipodi:nodetypes="ccccccc"
             inkscape:label="b"
             style="fill:#1a1a1a" /><path
             id="path1203"
             d="M 7.3030066,17 6.3588808,16 6.6941258,10 7.75,9 l 0.9441258,1 -0.335245,6 z"
             sodipodi:nodetypes="ccccccc"
             inkscape:label="c"
             style="fill:#1a1a1a" /><path
             id="path1205"
             d="M 0.55300661,17 1.6088808,16 h 4.75 l 0.9441258,1 -1.0558741,1 h -4.75 z"
             sodipodi:nodetypes="ccccccc"
             inkscape:label="d"
             style="fill:#1a1a1a" /><path
             id="path1207"
             d="m 1,9 0.9441258,1 -0.335245,6 -1.05587419,1 -0.94412579,-1 0.33524502,-6 z"
             inkscape:label="e"
             style="fill:#1a1a1a" /><path
             id="path1209"
             d="M 1.4469933,1 2.3911192,2 2.0558742,8 1,9 0.05587416,8 0.39111918,2 Z"
             inkscape:label="f"
             style="fill:#1a1a1a" /><path
             id="path1211"
             d="m 7.75,9 -1.0558742,1 h -4.75 L 1,9 2.0558742,8 h 4.75 z"
             sodipodi:nodetypes="ccccccc"
             inkscape:label="g"
             style="fill:#1a1a1a" /><rect
             style="fill:#1a1a1a;stroke-width:0.264672"
             id="rect1213"
             width="5.6774192"
             height="8.5218515"
             x="126.31216"
             y="131.02348"
             transform="matrix(0.23622048,0,-0.00865599,0.23606183,-19.72695,-14.888748)"
             inkscape:label="dot" /></g><g
           style="display:inline;fill:#1a1a1a;stroke:#ffffff;stroke-width:0.25"
           id="g1233"
           transform="matrix(3.941685,0,0,3.941685,227.59732,79.669997)"
           inkscape:label="1"><path
             id="path1217"
             d="M 8.1969934,1 7.1411192,2 h -4.75 L 1.4469933,1 2.5028675,0 h 4.75 z"
             sodipodi:nodetypes="ccccccc"
             inkscape:label="a"
             style="fill:#1a1a1a" /><path
             id="path1219"
             d="M 7.75,9 6.8058742,8 7.1411192,2 8.1969934,1 9.1411192,2 8.8058742,8 Z"
             sodipodi:nodetypes="ccccccc"
             inkscape:label="b"
             style="fill:#1a1a1a" /><path
             id="path1221"
             d="M 7.3030066,17 6.3588808,16 6.6941258,10 7.75,9 l 0.9441258,1 -0.335245,6 z"
             sodipodi:nodetypes="ccccccc"
             inkscape:label="c"
             style="fill:#1a1a1a" /><path
             id="path1223"
             d="M 0.55300661,17 1.6088808,16 h 4.75 l 0.9441258,1 -1.0558741,1 h -4.75 z"
             sodipodi:nodetypes="ccccccc"
             inkscape:label="d"
             style="fill:#1a1a1a" /><path
             id="path1225"
             d="m 1,9 0.9441258,1 -0.335245,6 -1.05587419,1 -0.94412579,-1 0.33524502,-6 z"
             inkscape:label="e"
             style="fill:#1a1a1a" /><path
             id="path1227"
             d="M 1.4469933,1 2.3911192,2 2.0558742,8 1,9 0.05587416,8 0.39111918,2 Z"
             inkscape:label="f"
             style="display:inline;fill:#1a1a1a" /><path
             id="path1229"
             d="m 7.75,9 -1.0558742,1 h -4.75 L 1,9 2.0558742,8 h 4.75 z"
             sodipodi:nodetypes="ccccccc"
             inkscape:label="g"
             style="display:inline;fill:#1a1a1a" /></g></g><g
         id="g2450"
         inkscape:label="quantity"
         transform="translate(1.0418574e-6)"
         sodipodi:insensitive="true"
         style="display:inline"><g
           aria-label="Ls"
           id="text1528"
           style="font-weight:bold;font-size:14.1111px;font-family:Arial;-inkscape-font-specification:'Arial, Bold';fill:#1a1a1a;stroke-width:0.264583"
           inkscape:label="Ls"><path
             d="M 23.527466,106.09677 V 96.078441 h 2.039495 v 8.316459 h 5.071177 v 1.70187 z"
             id="path6976" /><path
             d="m 31.396058,104.00904 1.943033,-0.29627 q 0.124023,0.56499 0.502983,0.86127 0.378961,0.28939 1.061089,0.28939 0.75103,0 1.12999,-0.27561 0.254937,-0.19292 0.254937,-0.51676 0,-0.22049 -0.137803,-0.36518 -0.144694,-0.13781 -0.647678,-0.25494 -2.342663,-0.51676 -2.96967,-0.94396 -0.868163,-0.59255 -0.868163,-1.64675 0,-0.950845 0.75103,-1.598523 0.75103,-0.647677 2.328883,-0.647677 1.50206,0 2.23242,0.489203 0.73036,0.489203 1.005967,1.446937 l -1.825899,0.33762 q -0.117133,-0.42719 -0.447862,-0.65457 -0.323839,-0.22737 -0.930175,-0.22737 -0.764811,0 -1.09554,0.21359 -0.220486,0.15159 -0.220486,0.39274 0,0.20671 0.192925,0.3514 0.261827,0.19293 1.805229,0.54433 1.550292,0.3514 2.163518,0.86127 0.606337,0.51676 0.606337,1.44005 0,1.00597 -0.840603,1.72944 -0.840603,0.72347 -2.487357,0.72347 -1.49517,0 -2.370224,-0.60634 -0.868163,-0.60634 -1.136881,-1.64676 z"
             id="path6978" /></g><g
           aria-label="Lp"
           id="text1532"
           style="font-weight:bold;font-size:14.1111px;font-family:Arial;-inkscape-font-specification:'Arial, Bold';fill:#1a1a1a;stroke-width:0.264583"
           inkscape:label="Lp"><path
             d="M 42.649661,106.09677 V 96.078441 h 2.039495 v 8.316459 h 5.071176 v 1.70187 z"
             id="path6981" /><path
             d="m 51.14526,98.779394 h 1.805228 v 1.074869 q 0.3514,-0.551215 0.950846,-0.895724 0.599446,-0.344509 1.329806,-0.344509 1.274684,0 2.163518,0.999077 0.888834,0.999073 0.888834,2.783633 0,1.83279 -0.895724,2.85254 -0.895724,1.01286 -2.170409,1.01286 -0.606336,0 -1.102429,-0.24116 -0.489204,-0.24116 -1.033528,-0.82682 v 3.68625 H 51.14526 Z m 1.915471,3.534666 q 0,1.23334 0.489203,1.8259 0.489204,0.58566 1.192003,0.58566 0.675238,0 1.1231,-0.53743 0.447862,-0.54432 0.447862,-1.77767 0,-1.15066 -0.461643,-1.70876 -0.461642,-0.55811 -1.14377,-0.55811 -0.709689,0 -1.178222,0.55122 -0.468533,0.54432 -0.468533,1.61919 z"
             id="path6983" /></g><g
           aria-label="Cs"
           id="text1536"
           style="font-weight:bold;font-size:14.1111px;font-family:Arial;-inkscape-font-specification:'Arial, Bold';fill:#1a1a1a;stroke-width:0.264583"
           inkscape:label="Cs"><path
             d="m 29.356564,116.48855 1.977483,0.62701 q -0.454752,1.65364 -1.515841,2.4598 -1.054198,0.79926 -2.680282,0.79926 -2.011934,0 -3.307289,-1.37115 -1.295355,-1.37804 -1.295355,-3.76204 0,-2.52181 1.302245,-3.91363 1.302245,-1.3987 3.424422,-1.3987 1.85346,0 3.011011,1.09553 0.689019,0.64768 1.033528,1.86035 l -2.018824,0.48232 q -0.179145,-0.78548 -0.75103,-1.24024 -0.564996,-0.45475 -1.378038,-0.45475 -1.1231,0 -1.825899,0.80615 -0.695908,0.80616 -0.695908,2.61138 0,1.91548 0.689018,2.72852 0.689019,0.81304 1.791448,0.81304 0.813042,0 1.398708,-0.51676 0.585666,-0.51677 0.840603,-1.62609 z"
             id="path6986" /><path
             d="m 32.388245,118.11464 1.943032,-0.29628 q 0.124024,0.56499 0.502984,0.86127 0.37896,0.28939 1.061089,0.28939 0.75103,0 1.12999,-0.27561 0.254937,-0.19292 0.254937,-0.51676 0,-0.22049 -0.137804,-0.36518 -0.144694,-0.13781 -0.647677,-0.25494 -2.342663,-0.51676 -2.96967,-0.94395 -0.868164,-0.59256 -0.868164,-1.64676 0,-0.95084 0.75103,-1.59852 0.751031,-0.64768 2.328883,-0.64768 1.502061,0 2.23242,0.4892 0.73036,0.48921 1.005967,1.44694 l -1.825899,0.33762 q -0.117133,-0.42719 -0.447862,-0.65457 -0.323839,-0.22737 -0.930175,-0.22737 -0.76481,0 -1.095539,0.21359 -0.220486,0.15159 -0.220486,0.39274 0,0.20671 0.192925,0.3514 0.261827,0.19293 1.805229,0.54433 1.550291,0.3514 2.163518,0.86127 0.606336,0.51677 0.606336,1.44005 0,1.00597 -0.840602,1.72944 -0.840603,0.72347 -2.487357,0.72347 -1.495171,0 -2.370224,-0.60634 -0.868164,-0.60634 -1.136881,-1.64675 z"
             id="path6988" /></g><g
           aria-label="Cp"
           id="text1540"
           style="font-weight:bold;font-size:14.1111px;font-family:Arial;-inkscape-font-specification:'Arial, Bold';fill:#1a1a1a;stroke-width:0.264583"
           inkscape:label="Cp"><path
             d="m 48.47876,116.48855 1.977483,0.62701 q -0.454752,1.65364 -1.515841,2.4598 -1.054198,0.79926 -2.680282,0.79926 -2.011934,0 -3.307289,-1.37115 -1.295355,-1.37804 -1.295355,-3.76204 0,-2.52181 1.302245,-3.91363 1.302245,-1.3987 3.424422,-1.3987 1.85346,0 3.011012,1.09553 0.689018,0.64768 1.033527,1.86035 l -2.018824,0.48232 q -0.179145,-0.78548 -0.75103,-1.24024 -0.564995,-0.45475 -1.378037,-0.45475 -1.123101,0 -1.8259,0.80615 -0.695908,0.80616 -0.695908,2.61138 0,1.91548 0.689018,2.72852 0.689019,0.81304 1.791449,0.81304 0.813041,0 1.398707,-0.51676 0.585666,-0.51677 0.840603,-1.62609 z"
             id="path6991" /><path
             d="m 52.137448,112.88498 h 1.805229 v 1.07487 q 0.351399,-0.55121 0.950845,-0.89572 0.599447,-0.34451 1.329806,-0.34451 1.274685,0 2.163518,0.99908 0.888834,0.99907 0.888834,2.78363 0,1.83279 -0.895724,2.85254 -0.895724,1.01286 -2.170408,1.01286 -0.606337,0 -1.10243,-0.24116 -0.489203,-0.24116 -1.033528,-0.82682 v 3.68625 h -1.936142 z m 1.915472,3.53467 q 0,1.23334 0.489203,1.8259 0.489203,0.58567 1.192002,0.58567 0.675238,0 1.1231,-0.53744 0.447862,-0.54432 0.447862,-1.77767 0,-1.15066 -0.461642,-1.70876 -0.461643,-0.55811 -1.143771,-0.55811 -0.709689,0 -1.178222,0.55122 -0.468532,0.54432 -0.468532,1.61919 z"
             id="path6993" /></g><g
           aria-label="Rs"
           id="text1544"
           style="font-weight:bold;font-size:14.1111px;font-family:Arial;-inkscape-font-specification:'Arial, Bold';fill:#1a1a1a;stroke-width:0.264583"
           inkscape:label="Rs"><path
             d="m 22.717869,133.88075 v -10.10101 h 4.292586 q 1.619194,0 2.349553,0.27561 0.73725,0.26872 1.178222,0.96462 0.440972,0.69591 0.440972,1.59164 0,1.13688 -0.668348,1.88102 -0.668348,0.73725 -1.998154,0.93017 0.661458,0.38585 1.088649,0.8475 0.434082,0.46164 1.164442,1.63986 l 1.233343,1.97059 h -2.439126 l -1.474499,-2.19797 q -0.785482,-1.17822 -1.074869,-1.48139 -0.289388,-0.31005 -0.613227,-0.4203 -0.323839,-0.11713 -1.026638,-0.11713 h -0.413411 v 4.21679 z m 2.039495,-5.82909 h 1.508951 q 1.467609,0 1.832789,-0.12403 0.36518,-0.12402 0.571886,-0.42719 0.206705,-0.30317 0.206705,-0.75792 0,-0.50987 -0.275607,-0.81993 -0.268717,-0.31695 -0.764811,-0.39963 -0.248046,-0.0344 -1.48828,-0.0344 h -1.591633 z"
             id="path6996" /><path
             d="m 32.205655,131.79303 1.943032,-0.29628 q 0.124023,0.56499 0.502983,0.86127 0.378961,0.28939 1.061089,0.28939 0.75103,0 1.12999,-0.27561 0.254937,-0.19292 0.254937,-0.51676 0,-0.22049 -0.137803,-0.36518 -0.144694,-0.13781 -0.647678,-0.25494 -2.342663,-0.51676 -2.96967,-0.94395 -0.868163,-0.59256 -0.868163,-1.64676 0,-0.95084 0.75103,-1.59852 0.75103,-0.64768 2.328883,-0.64768 1.50206,0 2.23242,0.4892 0.73036,0.48921 1.005967,1.44694 l -1.825899,0.33762 q -0.117133,-0.42719 -0.447862,-0.65457 -0.323839,-0.22737 -0.930175,-0.22737 -0.764811,0 -1.09554,0.21359 -0.220486,0.15159 -0.220486,0.39274 0,0.20671 0.192925,0.3514 0.261827,0.19293 1.805229,0.54433 1.550292,0.3514 2.163518,0.86127 0.606337,0.51677 0.606337,1.44005 0,1.00597 -0.840603,1.72944 -0.840603,0.72347 -2.487357,0.72347 -1.49517,0 -2.370224,-0.60634 -0.868163,-0.60634 -1.13688,-1.64675 z"
             id="path6998" /></g><g
           aria-label="Rp"
           id="text1548"
           style="font-weight:bold;font-size:14.1111px;font-family:Arial;-inkscape-font-specification:'Arial, Bold';fill:#1a1a1a;stroke-width:0.264583"
           inkscape:label="Rp"><path
             d="m 41.840065,133.88075 v -10.10101 h 4.292586 q 1.619194,0 2.349553,0.27561 0.73725,0.26872 1.178222,0.96462 0.440972,0.69591 0.440972,1.59164 0,1.13688 -0.668348,1.88102 -0.668348,0.73725 -1.998154,0.93017 0.661458,0.38585 1.08865,0.8475 0.434081,0.46164 1.164441,1.63986 l 1.233343,1.97059 h -2.439126 l -1.474499,-2.19797 q -0.785481,-1.17822 -1.074869,-1.48139 -0.289388,-0.31005 -0.613227,-0.4203 -0.323839,-0.11713 -1.026637,-0.11713 H 43.87956 v 4.21679 z m 2.039495,-5.82909 h 1.508951 q 1.46761,0 1.832789,-0.12403 0.36518,-0.12402 0.571886,-0.42719 0.206705,-0.30317 0.206705,-0.75792 0,-0.50987 -0.275607,-0.81993 -0.268717,-0.31695 -0.764811,-0.39963 -0.248046,-0.0344 -1.48828,-0.0344 H 43.87956 Z"
             id="path7001" /><path
             d="m 51.954858,126.56338 h 1.805228 v 1.07486 q 0.3514,-0.55121 0.950846,-0.89572 0.599446,-0.34451 1.329806,-0.34451 1.274684,0 2.163518,0.99908 0.888834,0.99907 0.888834,2.78363 0,1.83279 -0.895724,2.85254 -0.895724,1.01286 -2.170409,1.01286 -0.606336,0 -1.102429,-0.24116 -0.489204,-0.24116 -1.033528,-0.82682 v 3.68625 h -1.936142 z m 1.915471,3.53466 q 0,1.23334 0.489203,1.8259 0.489204,0.58567 1.192003,0.58567 0.675238,0 1.1231,-0.53744 0.447862,-0.54432 0.447862,-1.77767 0,-1.15066 -0.461643,-1.70876 -0.461642,-0.55811 -1.14377,-0.55811 -0.70969,0 -1.178222,0.55122 -0.468533,0.54432 -0.468533,1.61919 z"
             id="path7003" /></g><g
           aria-label="DCR"
           id="text1552"
           style="font-weight:bold;font-size:14.1111px;font-family:Arial;-inkscape-font-specification:'Arial, Bold';fill:#1a1a1a;stroke-width:0.264583"
           inkscape:label="DCR"><path
             d="m 30.00384,139.81522 h 3.727591 q 1.260904,0 1.922361,0.19292 0.888834,0.26183 1.522731,0.93018 0.633898,0.66835 0.964626,1.63986 0.330729,0.96463 0.330729,2.38401 0,1.24712 -0.310058,2.14973 -0.37896,1.10243 -1.081759,1.78456 -0.530544,0.51677 -1.433159,0.80615 -0.675238,0.2136 -1.805228,0.2136 H 30.00384 Z m 2.039495,1.70876 v 6.69037 h 1.522731 q 0.854383,0 1.233343,-0.0965 0.496094,-0.12402 0.819932,-0.4203 0.330729,-0.29628 0.537435,-0.97152 0.206706,-0.68213 0.206706,-1.85346 0,-1.17133 -0.206706,-1.79834 -0.206706,-0.627 -0.578776,-0.9784 -0.37207,-0.3514 -0.943955,-0.47542 -0.427192,-0.0965 -1.674315,-0.0965 z"
             id="path7006" /><path
             d="m 46.664309,146.20242 1.977483,0.62701 q -0.454752,1.65364 -1.515841,2.45979 -1.054198,0.79926 -2.680282,0.79926 -2.011934,0 -3.307289,-1.37114 -1.295355,-1.37804 -1.295355,-3.76204 0,-2.52181 1.302245,-3.91363 1.302245,-1.39871 3.424422,-1.39871 1.85346,0 3.011011,1.09554 0.689019,0.64768 1.033528,1.86035 l -2.018824,0.48232 q -0.179145,-0.78549 -0.75103,-1.24024 -0.564996,-0.45475 -1.378038,-0.45475 -1.1231,0 -1.825899,0.80615 -0.695908,0.80615 -0.695908,2.61138 0,1.91547 0.689018,2.72852 0.689019,0.81304 1.791448,0.81304 0.813042,0 1.398708,-0.51677 0.585666,-0.51676 0.840603,-1.62608 z"
             id="path7008" /><path
             d="m 50.398789,149.91623 v -10.10101 h 4.292586 q 1.619193,0 2.349553,0.2756 0.73725,0.26872 1.178222,0.96463 0.440972,0.69591 0.440972,1.59163 0,1.13688 -0.668348,1.88102 -0.668349,0.73725 -1.998154,0.93018 0.661457,0.38585 1.088649,0.84749 0.434082,0.46164 1.164441,1.63987 l 1.233344,1.97059 h -2.439126 l -1.4745,-2.19797 q -0.785481,-1.17822 -1.074869,-1.48139 -0.289388,-0.31006 -0.613226,-0.4203 -0.323839,-0.11713 -1.026638,-0.11713 h -0.413411 v 4.21679 z m 2.039495,-5.8291 h 1.508951 q 1.467609,0 1.832789,-0.12402 0.36518,-0.12402 0.571885,-0.42719 0.206706,-0.30317 0.206706,-0.75792 0,-0.50988 -0.275608,-0.81994 -0.268717,-0.31694 -0.76481,-0.39963 -0.248047,-0.0344 -1.48828,-0.0344 h -1.591633 z"
             id="path7010" /></g></g><g
         id="g2477"
         inkscape:label="unit"
         transform="translate(1.0418574e-6)"><g
           id="g1922"
           inkscape:label="henryunit"><g
             aria-label="H"
             id="text1570"
             style="font-weight:bold;font-size:14.1111px;font-family:Arial;-inkscape-font-specification:'Arial, Bold';fill:#1a1a1a;stroke-width:0.264583"
             inkscape:label="H"><path
               d="m 278.9135,130.93549 v -10.10102 h 2.0395 v 3.97564 h 3.9963 v -3.97564 h 2.0395 v 10.10102 h -2.0395 v -4.41661 h -3.9963 v 4.41661 z"
               id="path6952" /></g><g
             id="g8834"
             inkscape:label="mu"
             transform="translate(-0.41218461,-0.0053812)"
             style="display:inline"><g
               aria-label="μ"
               id="g8824"
               style="font-weight:bold;font-size:14.1111px;font-family:Arial;-inkscape-font-specification:'Arial, Bold';fill:#1a1a1a;stroke-width:0.264583"
               inkscape:label="micro"><path
                 d="m 269.6051,126.99216 h 1.93614 v 3.32796 q 0,0.93018 0.0965,1.45383 0.0965,0.52366 0.43408,0.84749 0.34451,0.32384 0.81993,0.32384 0.49609,0 0.85438,-0.33762 0.36518,-0.33762 0.46854,-0.81993 0.10335,-0.48231 0.10335,-1.44694 v -3.34863 h 1.93614 v 7.31738 h -1.78456 v -0.88194 q -0.54432,1.0473 -1.4745,1.0473 -0.99218,0 -1.45383,-1.0473 v 3.66557 h -1.93614 z"
                 id="path8822" /></g><g
               aria-label="m"
               id="g8828"
               style="font-weight:bold;font-size:14.1111px;font-family:Arial;-inkscape-font-specification:'Arial, Bold';display:inline;fill:#1a1a1a;stroke-width:0.264583"
               inkscape:label="milli"><path
                 d="m 267.53256,123.61811 h 1.78456 v 0.99908 q 0.95774,-1.16445 2.28065,-1.16445 0.7028,0 1.21956,0.28939 0.51677,0.28939 0.8475,0.87506 0.48231,-0.58567 1.04041,-0.87506 0.55811,-0.28939 1.19201,-0.28939 0.80615,0 1.36425,0.33073 0.55811,0.32384 0.83372,0.95774 0.19981,0.46853 0.19981,1.51584 v 4.67844 h -1.93614 v -4.18235 q 0,-1.08865 -0.19982,-1.40559 -0.26871,-0.41342 -0.82682,-0.41342 -0.40652,0 -0.76481,0.24805 -0.35829,0.24805 -0.51676,0.73036 -0.15848,0.47542 -0.15848,1.50895 v 3.514 h -1.93614 v -4.01009 q 0,-1.06798 -0.10335,-1.37804 -0.10335,-0.31006 -0.32384,-0.46164 -0.2136,-0.15159 -0.58567,-0.15159 -0.44786,0 -0.80615,0.24116 -0.35829,0.24116 -0.51676,0.69591 -0.15159,0.45475 -0.15159,1.50895 v 3.55534 h -1.93614 z"
                 id="path8826" /></g><g
               aria-label="n"
               id="g8832"
               style="font-weight:bold;font-size:14.1111px;font-family:Arial;-inkscape-font-specification:'Arial, Bold';display:inline;fill:#1a1a1a;stroke:#ffffff;stroke-width:0"
               inkscape:label="nano"
               transform="translate(0.08870968)"><path
                 d="m 273.856,130.93994 h -1.93614 v -3.73448 q 0,-1.18511 -0.12402,-1.52962 -0.12403,-0.3514 -0.40652,-0.54433 -0.27561,-0.19292 -0.66835,-0.19292 -0.50299,0 -0.90262,0.27561 -0.39963,0.2756 -0.55121,0.73036 -0.1447,0.45475 -0.1447,1.6812 v 3.31418 h -1.93614 v -7.31738 h 1.79834 v 1.07487 q 0.95774,-1.24023 2.41157,-1.24023 0.64078,0 1.17133,0.23427 0.53054,0.22737 0.79926,0.58566 0.27561,0.35829 0.37896,0.81304 0.11024,0.45476 0.11024,1.30225 z"
                 id="path8830" /></g></g></g><g
           id="g1933"
           inkscape:label="faradunit"><g
             aria-label="p"
             id="text1701"
             style="font-weight:bold;font-size:14.1111px;font-family:Arial;-inkscape-font-specification:'Arial, Bold';fill:#1a1a1a;stroke-width:0.264583"
             inkscape:label="p"><path
               d="m 267.04239,137.23504 h 1.80523 v 1.07487 q 0.3514,-0.55122 0.95085,-0.89573 0.59944,-0.34451 1.3298,-0.34451 1.27469,0 2.16352,0.99908 0.88883,0.99908 0.88883,2.78363 0,1.83279 -0.89572,2.85254 -0.89572,1.01286 -2.17041,1.01286 -0.60634,0 -1.10243,-0.24116 -0.4892,-0.24115 -1.03353,-0.82682 v 3.68625 h -1.93614 z m 1.91547,3.53466 q 0,1.23335 0.48921,1.8259 0.4892,0.58567 1.192,0.58567 0.67524,0 1.1231,-0.53744 0.44786,-0.54432 0.44786,-1.77767 0,-1.15066 -0.46164,-1.70876 -0.46164,-0.55811 -1.14377,-0.55811 -0.70969,0 -1.17822,0.55122 -0.46854,0.54432 -0.46854,1.61919 z"
               id="path6955" /></g><g
             id="g1711"
             inkscape:label="mu"
             transform="translate(7.8508065,13.483871)"><g
               aria-label="μ"
               id="text1705"
               style="font-weight:bold;font-size:14.1111px;font-family:Arial;-inkscape-font-specification:'Arial, Bold';fill:#1a1a1a;stroke-width:0.264583"
               inkscape:label="micro"><path
                 d="m 269.6051,126.99216 h 1.93614 v 3.32796 q 0,0.93018 0.0965,1.45383 0.0965,0.52366 0.43408,0.84749 0.34451,0.32384 0.81993,0.32384 0.49609,0 0.85438,-0.33762 0.36518,-0.33762 0.46854,-0.81993 0.10335,-0.48231 0.10335,-1.44694 v -3.34863 h 1.93614 v 7.31738 h -1.78456 v -0.88194 q -0.54432,1.0473 -1.4745,1.0473 -0.99218,0 -1.45383,-1.0473 v 3.66557 h -1.93614 z"
                 id="path6958" /></g><g
               aria-label="m"
               id="text1709"
               style="font-weight:bold;font-size:14.1111px;font-family:Arial;-inkscape-font-specification:'Arial, Bold';display:inline;fill:#1a1a1a;stroke-width:0.264583"
               inkscape:label="milli"><path
                 d="m 267.53256,123.61811 h 1.78456 v 0.99908 q 0.95774,-1.16445 2.28065,-1.16445 0.7028,0 1.21956,0.28939 0.51677,0.28939 0.8475,0.87506 0.48231,-0.58567 1.04041,-0.87506 0.55811,-0.28939 1.19201,-0.28939 0.80615,0 1.36425,0.33073 0.55811,0.32384 0.83372,0.95774 0.19981,0.46853 0.19981,1.51584 v 4.67844 h -1.93614 v -4.18235 q 0,-1.08865 -0.19982,-1.40559 -0.26871,-0.41342 -0.82682,-0.41342 -0.40652,0 -0.76481,0.24805 -0.35829,0.24805 -0.51676,0.73036 -0.15848,0.47542 -0.15848,1.50895 v 3.514 h -1.93614 v -4.01009 q 0,-1.06798 -0.10335,-1.37804 -0.10335,-0.31006 -0.32384,-0.46164 -0.2136,-0.15159 -0.58567,-0.15159 -0.44786,0 -0.80615,0.24116 -0.35829,0.24116 -0.51676,0.69591 -0.15159,0.45475 -0.15159,1.50895 v 3.55534 h -1.93614 z"
                 id="path6961" /></g><g
               aria-label="n"
               id="text8031"
               style="font-weight:bold;font-size:14.1111px;font-family:Arial;-inkscape-font-specification:'Arial, Bold';display:inline;fill:#1a1a1a;stroke:#ffffff;stroke-width:0"
               inkscape:label="nano"
               transform="translate(0.08870968)"><path
                 d="m 273.856,130.93994 h -1.93614 v -3.73448 q 0,-1.18511 -0.12402,-1.52962 -0.12403,-0.3514 -0.40652,-0.54433 -0.27561,-0.19292 -0.66835,-0.19292 -0.50299,0 -0.90262,0.27561 -0.39963,0.2756 -0.55121,0.73036 -0.1447,0.45475 -0.1447,1.6812 v 3.31418 h -1.93614 v -7.31738 h 1.79834 v 1.07487 q 0.95774,-1.24023 2.41157,-1.24023 0.64078,0 1.17133,0.23427 0.53054,0.22737 0.79926,0.58566 0.27561,0.35829 0.37896,0.81304 0.11024,0.45476 0.11024,1.30225 z"
                 id="path8033" /></g></g><g
             aria-label="F"
             id="text1715"
             style="font-weight:bold;font-size:14.1111px;font-family:Arial;-inkscape-font-specification:'Arial, Bold';fill:#1a1a1a;stroke-width:0.264583"
             inkscape:label="F"><path
               d="m 287.19563,144.44153 v -10.10101 h 6.92464 v 1.70876 h -4.88514 v 2.3909 h 4.21679 v 1.70876 h -4.21679 v 4.29259 z"
               id="path6964" /></g></g><g
           id="g1913"
           inkscape:label="ohmunit"><g
             aria-label="Ω"
             id="text1558"
             style="font-weight:bold;font-size:14.1111px;font-family:Arial;-inkscape-font-specification:'Arial, Bold';fill:#1a1a1a;stroke-width:0.264583"
             inkscape:label="ohm"><path
               d="m 285.61072,118.25 v -1.70188 h 1.95682 q -1.79834,-1.88791 -1.79834,-4.06521 0,-1.90169 1.28846,-3.20393 1.28847,-1.30225 3.53467,-1.30225 2.22553,0 3.52088,1.29536 1.29536,1.29535 1.29536,3.21082 0,2.1773 -1.79834,4.06521 h 1.9637 V 118.25 h -4.62331 v -1.62608 q 1.16444,-0.43409 1.757,-1.4056 0.59944,-0.97152 0.59944,-2.23931 0,-1.30225 -0.68902,-2.28065 -0.68213,-0.97841 -2.02571,-0.97841 -1.3367,0 -2.02572,0.97152 -0.68901,0.97151 -0.68901,2.28754 0,1.27468 0.59255,2.2462 0.59945,0.96462 1.76389,1.39871 V 118.25 Z"
               id="path6967" /></g><g
             aria-label="M"
             id="text1808"
             style="font-weight:bold;font-size:14.1111px;font-family:Arial;-inkscape-font-specification:'Arial, Bold';fill:#1a1a1a;stroke-width:0.264583"
             inkscape:label="mega"><path
               d="m 267.03942,118.25 v -10.10101 h 3.05235 l 1.83279,6.89018 1.81212,-6.89018 h 3.05924 V 118.25 h -1.8948 v -7.95127 l -2.00504,7.95127 h -1.9637 l -1.99816,-7.95127 V 118.25 Z"
               id="path6970" /></g><g
             aria-label="k"
             id="text1812"
             style="font-weight:bold;font-size:14.1111px;font-family:Arial;-inkscape-font-specification:'Arial, Bold';fill:#1a1a1a;stroke-width:0.264583"
             inkscape:label="kilo"><path
               d="m 277.98427,118.25 v -10.10101 h 1.93614 v 5.36056 l 2.26687,-2.57693 h 2.38401 l -2.50114,2.67339 2.68028,4.64399 h -2.08772 l -1.83968,-3.28662 -0.90262,0.94396 V 118.25 Z"
               id="path6973" /></g></g></g></g><g
       id="g9682"
       inkscape:label="state"><g
         aria-label="LCR"
         id="text1461"
         style="font-weight:bold;font-size:12.7px;font-family:Arial;-inkscape-font-specification:'Arial Bold';fill:#1a1a1a;stroke-width:0.264583"
         inkscape:label="LCR"><path
           d="m 10.199389,89.774193 v -9.016504 h 1.835547 v 7.484814 h 4.564063 v 1.53169 z"
           id="path6927"
           inkscape:label="L" /><path
           d="m 23.724145,86.431761 1.779736,0.564307 q -0.409277,1.488281 -1.364257,2.213818 -0.94878,0.719336 -2.412256,0.719336 -1.810742,0 -2.976563,-1.234033 -1.16582,-1.240234 -1.16582,-3.38584 0,-2.269629 1.172022,-3.522265 1.172021,-1.258838 3.081982,-1.258838 1.668115,0 2.709912,0.985986 0.620117,0.58291 0.930176,1.674316 l -1.816944,0.434082 q -0.16123,-0.706933 -0.675927,-1.116211 -0.508496,-0.409277 -1.240235,-0.409277 -1.010791,0 -1.64331,0.725537 -0.626319,0.725537 -0.626319,2.350244 0,1.723926 0.620118,2.455664 0.620117,0.731739 1.612304,0.731739 0.731739,0 1.258838,-0.465088 0.5271,-0.465088 0.756543,-1.463477 z"
           id="path6929"
           inkscape:label="C" /><path
           d="m 27.08518,89.774193 v -9.090918 h 3.86333 q 1.457276,0 2.1146,0.248047 0.663525,0.241846 1.0604,0.868164 0.396875,0.626318 0.396875,1.432471 0,1.023193 -0.601513,1.692919 -0.601514,0.663526 -1.79834,0.837159 0.595312,0.347265 0.979785,0.762744 0.390674,0.415478 1.047998,1.475879 l 1.11001,1.773535 H 33.06311 l -1.327051,-1.978174 q -0.706933,-1.0604 -0.967383,-1.333252 -0.260449,-0.279053 -0.551904,-0.378271 -0.291455,-0.10542 -0.923975,-0.10542 h -0.37207 v 3.795117 z m 1.835547,-5.246192 h 1.358057 q 1.320849,0 1.649511,-0.111621 0.328663,-0.111621 0.514698,-0.384472 0.186035,-0.272852 0.186035,-0.682129 0,-0.458887 -0.248047,-0.73794 -0.241846,-0.285253 -0.68833,-0.359668 -0.223242,-0.03101 -1.339453,-0.03101 h -1.432471 z"
           id="path6931"
           inkscape:label="R" /></g><g
         aria-label="Auto"
         id="text1465"
         style="font-weight:bold;font-size:12.7px;font-family:Arial;-inkscape-font-specification:'Arial Bold';fill:#1a1a1a;stroke-width:0.264583"
         inkscape:label="Auto"><path
           d="M 19.057408,77.354843 H 17.06063 l -0.79375,-2.06499 h -3.633886 l -0.750342,2.06499 H 9.9354839 L 13.476353,68.263925 H 15.41732 Z M 15.677769,73.758164 14.425132,70.384726 13.1973,73.758164 Z"
           id="path6934" /><path
           d="m 24.353208,77.354843 v -0.985986 q -0.359668,0.527099 -0.948779,0.830957 -0.582911,0.303857 -1.234034,0.303857 -0.663525,0 -1.190625,-0.291455 -0.527099,-0.291455 -0.762744,-0.818554 -0.235644,-0.5271 -0.235644,-1.457276 v -4.167187 h 1.742529 v 3.026172 q 0,1.389062 0.09302,1.705322 0.09922,0.310058 0.353466,0.496094 0.254248,0.179834 0.644922,0.179834 0.446485,0 0.799951,-0.241846 0.353467,-0.248047 0.483692,-0.607715 0.130224,-0.365869 0.130224,-1.779736 v -2.778125 h 1.74253 v 6.585644 z"
           id="path6936" /><path
           d="m 30.796226,70.769199 v 1.389062 h -1.190625 v 2.654102 q 0,0.806152 0.03101,0.942578 0.03721,0.130224 0.155029,0.217041 0.124024,0.08682 0.297656,0.08682 0.241846,0 0.700733,-0.167431 l 0.148828,1.351855 q -0.607715,0.260449 -1.37666,0.260449 -0.471289,0 -0.849561,-0.155029 -0.378271,-0.16123 -0.558105,-0.409277 -0.173633,-0.254248 -0.241846,-0.682129 -0.05581,-0.303858 -0.05581,-1.227832 v -2.871143 h -0.799952 v -1.389062 h 0.799952 v -1.308448 l 1.74873,-1.016992 v 2.32544 z"
           id="path6938" /><path
           d="m 31.602378,73.969003 q 0,-0.868164 0.427881,-1.680517 0.42788,-0.812354 1.209228,-1.240235 0.787549,-0.42788 1.754932,-0.42788 1.494482,0 2.449463,0.973584 0.95498,0.967382 0.95498,2.449462 0,1.494483 -0.967383,2.480469 -0.961181,0.979785 -2.424658,0.979785 -0.905371,0 -1.730127,-0.409277 -0.818555,-0.409277 -1.246435,-1.196826 -0.427881,-0.79375 -0.427881,-1.928565 z m 1.785937,0.09302 q 0,0.979785 0.465088,1.500683 0.465088,0.520899 1.147217,0.520899 0.682129,0 1.141015,-0.520899 0.465088,-0.520898 0.465088,-1.513085 0,-0.967383 -0.465088,-1.488282 -0.458886,-0.520898 -1.141015,-0.520898 -0.682129,0 -1.147217,0.520898 -0.465088,0.520899 -0.465088,1.500684 z"
           id="path6940" /></g><g
         aria-label="△"
         id="text1469"
         style="font-weight:bold;font-size:12.7px;font-family:Arial;-inkscape-font-specification:'Arial Bold';fill:#1a1a1a;stroke-width:0.264583"
         inkscape:label="delta"><path
           d="M 53.57878,89.327701 H 42.813546 l 5.407422,-9.078516 z m -5.357812,-7.14375 -3.671094,6.201172 h 7.292578 z"
           id="path6943" /></g><g
         aria-label="HOLD"
         id="text5244"
         style="display:inline;font-weight:bold;font-size:11.2889px;font-family:Arial;-inkscape-font-specification:'Arial, Bold';fill:#1a1a1a;stroke:#ffffff;stroke-width:0"
         inkscape:label="HOLD"><path
           d="M 85.407688,18.017084 V 9.9362599 h 1.631599 v 3.1805151 h 3.197051 V 9.9362599 h 1.631599 v 8.0808241 h -1.631599 v -3.533293 h -3.197051 v 3.533293 z"
           id="path6619" /><path
           d="m 93.223928,14.026281 q 0,-1.234723 0.369315,-2.072571 0.275608,-0.617362 0.749653,-1.107944 0.479558,-0.490582 1.04731,-0.727605 0.755166,-0.319705 1.741842,-0.319705 1.78594,0 2.855298,1.107944 1.074874,1.107944 1.074874,3.081296 0,1.956817 -1.063849,3.06476 -1.063847,1.102432 -2.844274,1.102432 -1.802476,0 -2.866322,-1.096919 -1.063847,-1.102432 -1.063847,-3.031688 z m 1.681208,-0.05512 q 0,1.372527 0.633899,2.083596 0.633898,0.705556 1.60955,0.705556 0.975652,0 1.598526,-0.700044 0.628386,-0.705556 0.628386,-2.111157 0,-1.389064 -0.61185,-2.072571 -0.606337,-0.683508 -1.615062,-0.683508 -1.008725,0 -1.626087,0.694532 -0.617362,0.68902 -0.617362,2.083596 z"
           id="path6621" /><path
           d="m 102.37962,18.017084 v -8.014678 h 1.6316 v 6.653175 h 4.05695 v 1.361503 z"
           id="path6623" /><path
           d="m 109.22572,9.9362599 h 2.98208 q 1.00873,0 1.53789,0.1543401 0.71107,0.209462 1.21819,0.744142 0.50712,0.534679 0.7717,1.311893 0.26459,0.771703 0.26459,1.907207 0,0.997701 -0.24805,1.719794 -0.30317,0.881945 -0.86541,1.427649 -0.42444,0.413412 -1.14653,0.644922 -0.54019,0.170877 -1.44418,0.170877 h -3.07028 z m 1.6316,1.3670151 v 5.352306 h 1.21819 q 0.68351,0 0.98668,-0.07717 0.39687,-0.09922 0.65594,-0.336242 0.26459,-0.237023 0.42995,-0.777214 0.16537,-0.545704 0.16537,-1.482771 0,-0.937067 -0.16537,-1.438673 -0.16536,-0.501607 -0.46302,-0.782727 -0.29766,-0.28112 -0.75517,-0.380339 -0.34175,-0.07717 -1.33945,-0.07717 z"
           id="path6625" /></g><g
         aria-label="APO"
         id="text5240"
         style="display:inline;font-weight:bold;font-size:14.1111px;font-family:Arial;-inkscape-font-specification:'Arial, Bold';fill:#1a1a1a;stroke:#ffffff;stroke-width:0"
         inkscape:label="APO"><path
           d="m 113.13834,28.876921 h -1.77492 l -0.70555,-1.835549 h -3.23013 l -0.66697,1.835549 h -1.73082 l 3.14745,-8.080824 h 1.7253 z m -3.00413,-3.197052 -1.11345,-2.998614 -1.09141,2.998614 z"
           style="font-size:11.2889px"
           id="path6612" /><path
           d="m 114.00375,28.876921 v -8.080824 h 2.61827 q 1.48828,0 1.94028,0.121267 0.69453,0.181901 1.16307,0.793751 0.46853,0.606337 0.46853,1.570965 0,0.744141 -0.2701,1.25126 -0.27009,0.507118 -0.68902,0.799263 -0.41341,0.286632 -0.84336,0.380339 -0.58428,0.115755 -1.69223,0.115755 h -1.06384 v 3.048224 z m 1.6316,-6.713809 v 2.293058 h 0.89297 q 0.96462,0 1.28984,-0.12678 0.32522,-0.12678 0.50712,-0.396875 0.18741,-0.270096 0.18741,-0.628386 0,-0.440973 -0.25907,-0.727605 -0.25907,-0.286633 -0.65595,-0.358291 -0.29214,-0.05512 -1.17409,-0.05512 z"
           style="font-size:11.2889px"
           id="path6614" /><path
           d="m 121.20263,24.886118 q 0,-1.234723 0.36931,-2.072572 0.27561,-0.617361 0.74965,-1.107943 0.47956,-0.490582 1.04731,-0.727605 0.75517,-0.319705 1.74185,-0.319705 1.78594,0 2.85529,1.107943 1.07488,1.107944 1.07488,3.081297 0,1.956816 -1.06385,3.06476 -1.06385,1.102432 -2.84428,1.102432 -1.80247,0 -2.86632,-1.09692 -1.06384,-1.102432 -1.06384,-3.031687 z m 1.6812,-0.05512 q 0,1.372528 0.6339,2.083596 0.6339,0.705557 1.60955,0.705557 0.97565,0 1.59853,-0.700045 0.62838,-0.705556 0.62838,-2.111156 0,-1.389064 -0.61184,-2.072572 -0.60634,-0.683507 -1.61507,-0.683507 -1.00872,0 -1.62608,0.694532 -0.61737,0.689019 -0.61737,2.083595 z"
           style="font-size:11.2889px"
           id="path6616" /></g><g
         aria-label="Cal"
         id="text5236"
         style="display:inline;font-weight:bold;font-size:14.1111px;font-family:Arial;-inkscape-font-specification:'Arial, Bold';fill:#1a1a1a;stroke:#ffffff;stroke-width:0"
         inkscape:label="Cal"><path
           d="m 90.44713,25.780413 1.581989,0.501607 q -0.363802,1.322918 -1.212674,1.96784 -0.843361,0.639411 -2.14423,0.639411 -1.60955,0 -2.645836,-1.09692 -1.036286,-1.102431 -1.036286,-3.009638 0,-2.01745 1.041798,-3.130906 1.041798,-1.118968 2.739543,-1.118968 1.48277,0 2.408813,0.876433 0.551216,0.518143 0.826824,1.488283 l -1.615063,0.385851 q -0.143316,-0.628386 -0.600825,-0.992189 -0.451997,-0.363802 -1.102432,-0.363802 -0.898481,0 -1.460722,0.644922 -0.556728,0.644923 -0.556728,2.089108 0,1.53238 0.551216,2.182815 0.551216,0.650435 1.433162,0.650435 0.650434,0 1.118968,-0.413412 0.468533,-0.413412 0.672483,-1.30087 z"
           style="font-size:11.2889px"
           id="path6605" /><path
           d="m 94.575736,24.683494 -1.4056,-0.253559 q 0.237023,-0.848873 0.815799,-1.256773 0.578777,-0.407899 1.719794,-0.407899 1.036286,0 1.543404,0.248047 0.507119,0.242535 0.711069,0.622874 0.209462,0.374827 0.209462,1.383552 l -0.01654,1.807987 q 0,0.771703 0.07166,1.141017 0.07717,0.363803 0.28112,0.782727 h -1.53238 q -0.06063,-0.154341 -0.148828,-0.457509 -0.03858,-0.137804 -0.05512,-0.181902 -0.396875,0.385851 -0.848872,0.578777 -0.451997,0.192926 -0.964628,0.192926 -0.903994,0 -1.427649,-0.490583 -0.518143,-0.490582 -0.518143,-1.240235 0,-0.496094 0.237023,-0.881946 0.237023,-0.391363 0.661459,-0.595313 0.429949,-0.209462 1.234724,-0.363802 1.085895,-0.20395 1.504819,-0.380339 v -0.15434 q 0,-0.446485 -0.220486,-0.633899 -0.220487,-0.192925 -0.832336,-0.192925 -0.413412,0 -0.644923,0.165365 -0.23151,0.159852 -0.374827,0.567752 z m 2.072572,1.256772 q -0.297657,0.09922 -0.942579,0.237023 -0.644923,0.137804 -0.84336,0.270096 -0.303169,0.214974 -0.303169,0.545703 0,0.325218 0.242535,0.56224 0.242535,0.237023 0.617362,0.237023 0.418924,0 0.799263,-0.275608 0.28112,-0.209462 0.369314,-0.51263 0.06063,-0.198438 0.06063,-0.755166 z"
           style="font-size:11.2889px"
           id="path6607" /><path
           d="m 99.696531,28.751467 v -8.080824 h 1.548919 v 8.080824 z"
           style="font-size:11.2889px"
           id="path6609" /></g><g
         aria-label="Sorting"
         id="text5868"
         style="display:inline;font-weight:bold;font-size:11.2889px;font-family:Arial;-inkscape-font-specification:'Arial, Bold';fill:#1a1a1a;stroke:#ffffff;stroke-width:0"
         inkscape:label="Sorting"><path
           d="m 10.029086,15.387785 1.587502,-0.154341 q 0.143316,0.799263 0.578776,1.17409 0.440973,0.374827 1.185114,0.374827 0.788239,0 1.185114,-0.33073 0.402388,-0.336242 0.402388,-0.782726 0,-0.286633 -0.170877,-0.48507 -0.165365,-0.20395 -0.584289,-0.352778 -0.286632,-0.09922 -1.306381,-0.352779 -1.311894,-0.325217 -1.841061,-0.799263 -0.744142,-0.666971 -0.744142,-1.626086 0,-0.617362 0.347266,-1.152041 0.352778,-0.540192 1.008725,-0.821312 0.661459,-0.28112 1.593014,-0.28112 1.521356,0 2.287546,0.666971 0.771702,0.666971 0.810287,1.780427 l -1.631599,0.07166 q -0.104731,-0.622874 -0.451997,-0.892969 -0.341754,-0.275608 -1.030773,-0.275608 -0.711069,0 -1.113456,0.292144 -0.259072,0.187414 -0.259072,0.501607 0,0.286632 0.242535,0.490582 0.308681,0.259071 1.499307,0.540191 1.190626,0.28112 1.758379,0.584289 0.573264,0.297657 0.892969,0.821312 0.325218,0.518142 0.325218,1.284332 0,0.694532 -0.385851,1.30087 -0.385851,0.606337 -1.091408,0.903994 -0.705556,0.292144 -1.758378,0.292144 -1.53238,0 -2.353692,-0.705556 -0.821311,-0.711068 -0.981164,-2.067059 z"
           id="path6590" /><path
           d="m 17.602791,15.007446 q 0,-0.771703 0.380339,-1.493795 0.380339,-0.722093 1.074871,-1.102432 0.700044,-0.380339 1.559941,-0.380339 1.32843,0 2.177303,0.865409 0.848872,0.859897 0.848872,2.177303 0,1.32843 -0.859897,2.204863 -0.854384,0.870921 -2.155254,0.870921 -0.804775,0 -1.537892,-0.363803 -0.727605,-0.363802 -1.107944,-1.063846 -0.380339,-0.705556 -0.380339,-1.714281 z m 1.587502,0.08268 q 0,0.870921 0.413412,1.333942 0.413412,0.463022 1.019749,0.463022 0.606338,0 1.014237,-0.463022 0.413412,-0.463021 0.413412,-1.344966 0,-0.859897 -0.413412,-1.322918 -0.407899,-0.463022 -1.014237,-0.463022 -0.606337,0 -1.019749,0.463022 -0.413412,0.463021 -0.413412,1.333942 z"
           id="path6592" /><path
           d="m 26.339562,18.017084 h -1.548917 v -5.853912 h 1.438674 v 0.832336 q 0.369314,-0.589801 0.661459,-0.777215 0.297656,-0.187413 0.672483,-0.187413 0.529167,0 1.019749,0.292145 l -0.479557,1.350478 q -0.391364,-0.253559 -0.727605,-0.253559 -0.325218,0 -0.551216,0.181901 -0.225999,0.176389 -0.35829,0.644923 -0.12678,0.468533 -0.12678,1.962328 z"
           id="path6594" /><path
           d="m 31.934403,12.163172 v 1.234723 h -1.058335 v 2.359204 q 0,0.716581 0.02756,0.837848 0.03307,0.115756 0.137804,0.192926 0.110243,0.07717 0.264584,0.07717 0.214974,0 0.622874,-0.148828 l 0.132291,1.20165 q -0.540191,0.231511 -1.223699,0.231511 -0.418924,0 -0.755165,-0.137804 -0.336242,-0.143316 -0.496095,-0.363802 -0.15434,-0.225999 -0.214974,-0.606338 -0.04961,-0.270096 -0.04961,-1.091407 v -2.55213 h -0.711069 v -1.234723 h 0.711069 v -1.163066 l 1.554428,-0.903993 v 2.067059 z"
           id="path6596" /><path
           d="M 33.009274,11.369421 V 9.9362599 h 1.548917 v 1.4331611 z m 0,6.647663 v -5.853912 h 1.548917 v 5.853912 z"
           id="path6598" /><path
           d="M 41.470437,18.017084 H 39.92152 v -2.98759 q 0,-0.948091 -0.09922,-1.223699 -0.09922,-0.28112 -0.325217,-0.43546 -0.220486,-0.154341 -0.534679,-0.154341 -0.402388,0 -0.722093,0.220487 -0.319705,0.220486 -0.440973,0.584288 -0.115755,0.363803 -0.115755,1.344967 v 2.651348 h -1.548917 v -5.853912 h 1.438674 v 0.859897 q 0.76619,-0.992189 1.929255,-0.992189 0.512631,0 0.937067,0.187413 0.424436,0.181902 0.63941,0.468534 0.220487,0.286632 0.303169,0.650435 0.08819,0.363802 0.08819,1.041798 z"
           id="path6600" /><path
           d="m 42.898086,18.402935 1.769402,0.214974 q 0.0441,0.308681 0.20395,0.424437 0.220487,0.165364 0.694532,0.165364 0.606338,0 0.909506,-0.181901 0.20395,-0.121267 0.308681,-0.391363 0.07166,-0.192926 0.07166,-0.711069 v -0.854384 q -0.694532,0.948091 -1.752866,0.948091 -1.179602,0 -1.868622,-0.997701 -0.540191,-0.788238 -0.540191,-1.962328 0,-1.471746 0.705556,-2.248961 0.711068,-0.777214 1.763891,-0.777214 1.085895,0 1.791451,0.953604 v -0.821312 h 1.449698 v 5.253087 q 0,1.036286 -0.170877,1.548916 -0.170877,0.512631 -0.479558,0.804775 -0.308681,0.292145 -0.826824,0.45751 -0.51263,0.165364 -1.300869,0.165364 -1.488283,0 -2.111157,-0.51263 -0.622874,-0.507119 -0.622874,-1.289845 0,-0.07717 0.0055,-0.187414 z m 1.383551,-3.434074 q 0,0.931554 0.358291,1.367015 0.363802,0.429948 0.892969,0.429948 0.567753,0 0.959116,-0.440973 0.391363,-0.446484 0.391363,-1.317405 0,-0.909506 -0.374827,-1.350479 -0.374826,-0.440973 -0.948091,-0.440973 -0.556728,0 -0.92053,0.435461 -0.358291,0.429948 -0.358291,1.317406 z"
           id="path6602" /></g><g
         id="g9741"
         inkscape:label="tolerance"><g
           aria-label="Tol"
           id="text5872"
           style="display:inline;font-weight:bold;font-size:11.2889px;font-family:Arial;-inkscape-font-specification:'Arial, Bold';fill:#1a1a1a;stroke:#ffffff;stroke-width:0"
           inkscape:label="Tol"><path
             d="m 12.398388,28.25625 v -6.713809 h -2.397789 v -1.367015 h 6.421665 v 1.367015 h -2.392277 v 6.713809 z"
             id="path6583" /><path
             d="m 16.267924,25.246612 q 0,-0.771702 0.380338,-1.493795 0.380339,-0.722093 1.074871,-1.102432 0.700044,-0.380339 1.559941,-0.380339 1.32843,0 2.177303,0.865409 0.848872,0.859897 0.848872,2.177303 0,1.32843 -0.859897,2.204863 -0.854384,0.870921 -2.155254,0.870921 -0.804775,0 -1.537892,-0.363802 -0.727605,-0.363803 -1.107944,-1.063847 -0.380338,-0.705556 -0.380338,-1.714281 z m 1.587501,0.08268 q 0,0.870921 0.413412,1.333943 0.413412,0.463021 1.019749,0.463021 0.606338,0 1.014237,-0.463021 0.413412,-0.463022 0.413412,-1.344967 0,-0.859897 -0.413412,-1.322918 -0.407899,-0.463021 -1.014237,-0.463021 -0.606337,0 -1.019749,0.463021 -0.413412,0.463021 -0.413412,1.333942 z"
             id="path6585" /><path
             d="M 23.521924,28.25625 V 20.175426 H 25.07084 V 28.25625 Z"
             id="path6587" /></g><g
           aria-label=".1205%"
           id="text5880"
           style="display:inline;font-weight:bold;font-size:11.2889px;font-family:Arial;-inkscape-font-specification:'Arial, Bold';fill:#1a1a1a;stroke:#ffffff;stroke-width:0"
           inkscape:label=".1205%"><path
             d="m 35.229641,28.25625 v -1.548916 h 1.548916 v 1.548916 z"
             id="path6567" /><path
             d="m 41.998571,28.25625 h -1.548916 v -5.837375 q -0.848873,0.79375 -2.000914,1.174089 v -1.4056 q 0.606338,-0.198438 1.317406,-0.749654 0.711069,-0.556728 0.975652,-1.295357 h 1.256772 z"
             id="path6569" /><path
             d="M 49.544716,26.817577 V 28.25625 H 44.11524 q 0.08819,-0.815799 0.529167,-1.543404 0.440973,-0.733117 1.741842,-1.94028 1.04731,-0.975652 1.284333,-1.322918 0.319705,-0.479558 0.319705,-0.948091 0,-0.518143 -0.28112,-0.793751 -0.275608,-0.28112 -0.76619,-0.28112 -0.48507,0 -0.771702,0.292145 -0.286632,0.292144 -0.33073,0.970139 l -1.543404,-0.15434 q 0.137804,-1.278821 0.865409,-1.835549 0.727605,-0.556728 1.819012,-0.556728 1.196139,0 1.879646,0.644923 0.683508,0.644922 0.683508,1.604038 0,0.545704 -0.198438,1.041798 -0.192925,0.490582 -0.617362,1.030773 -0.28112,0.358291 -1.014237,1.030774 -0.733117,0.672483 -0.931554,0.89297 -0.192926,0.220486 -0.314193,0.429948 z"
             id="path6571" /><path
             d="m 53.210302,20.142353 q 1.174089,0 1.835548,0.837848 0.788239,0.992189 0.788239,3.290759 0,2.293058 -0.793751,3.296271 -0.655947,0.826823 -1.830036,0.826823 -1.179602,0 -1.901695,-0.903994 -0.722093,-0.909506 -0.722093,-3.235637 0,-2.282033 0.793751,-3.285246 0.655947,-0.826824 1.830037,-0.826824 z m 0,1.284333 q -0.28112,0 -0.501607,0.181901 -0.220486,0.176389 -0.341754,0.639411 -0.159852,0.600825 -0.159852,2.022962 0,1.422137 0.143316,1.956816 0.143316,0.529167 0.35829,0.705556 0.220487,0.176389 0.501607,0.176389 0.28112,0 0.501606,-0.176389 0.220486,-0.181901 0.341754,-0.644922 0.159853,-0.595313 0.159853,-2.01745 0,-1.422137 -0.143317,-1.951304 -0.143316,-0.53468 -0.363802,-0.711069 -0.214974,-0.181901 -0.496094,-0.181901 z"
             id="path6573" /><path
             d="m 56.892424,26.178167 1.543404,-0.159853 q 0.06615,0.523655 0.391364,0.832336 0.325217,0.303169 0.749653,0.303169 0.48507,0 0.821312,-0.391364 0.336241,-0.396875 0.336241,-1.190626 0,-0.744141 -0.336241,-1.113456 -0.33073,-0.374827 -0.865409,-0.374827 -0.666971,0 -1.196138,0.589801 l -1.256773,-0.181901 0.793751,-4.205777 h 4.095534 v 1.449698 h -2.921444 l -0.242535,1.372527 q 0.518143,-0.259071 1.058334,-0.259071 1.030774,0 1.747355,0.749654 0.71658,0.749653 0.71658,1.945791 0,0.997701 -0.578776,1.780428 -0.788239,1.069358 -2.188327,1.069358 -1.118968,0 -1.824525,-0.600825 -0.705556,-0.600825 -0.84336,-1.615062 z"
             id="path6575" /><path
             d="m 63.159747,22.170828 q 0,-1.085896 0.474045,-1.609551 0.479558,-0.523655 1.295358,-0.523655 0.84336,0 1.317405,0.523655 0.479558,0.518143 0.479558,1.609551 0,1.085895 -0.479558,1.60955 -0.474045,0.523655 -1.289845,0.523655 -0.84336,0 -1.322918,-0.518143 -0.474045,-0.523655 -0.474045,-1.615062 z m 1.207162,-0.01103 q 0,0.788239 0.181902,1.058335 0.137804,0.198437 0.380339,0.198437 0.248047,0 0.385851,-0.198437 0.176389,-0.270096 0.176389,-1.058335 0,-0.788238 -0.176389,-1.052822 -0.137804,-0.20395 -0.385851,-0.20395 -0.242535,0 -0.380339,0.198438 -0.181902,0.270096 -0.181902,1.058334 z m 1.741842,6.405128 h -1.146528 l 4.304995,-8.527309 h 1.113456 z m 2.50252,-2.122181 q 0,-1.085895 0.474046,-1.60955 0.479558,-0.523655 1.306382,-0.523655 0.832335,0 1.306381,0.523655 0.479558,0.523655 0.479558,1.60955 0,1.091408 -0.479558,1.615063 -0.474046,0.523655 -1.289845,0.523655 -0.84336,0 -1.322918,-0.523655 -0.474046,-0.523655 -0.474046,-1.615063 z m 1.207163,-0.0055 q 0,0.788239 0.181901,1.052822 0.137804,0.20395 0.380339,0.20395 0.248047,0 0.380339,-0.198437 0.181901,-0.270096 0.181901,-1.058335 0,-0.788239 -0.176389,-1.058334 -0.137804,-0.198438 -0.385851,-0.198438 -0.248047,0 -0.380339,0.198438 -0.181901,0.270095 -0.181901,1.058334 z"
             id="path6577" /></g><g
           aria-label="+"
           id="text5884"
           style="display:inline;font-weight:bold;font-size:11.2889px;font-family:Arial;-inkscape-font-specification:'Arial, Bold';fill:#1a1a1a;stroke:#ffffff;stroke-width:0"
           inkscape:label="plus"><path
             d="m 29.996493,36.939958 v -2.100132 h -2.116668 v -1.449698 h 2.116668 v -2.100132 h 1.411113 v 2.100132 h 2.122181 v 1.449698 h -2.122181 v 2.100132 z"
             id="path6564" /></g><g
           aria-label="80  %"
           id="text5888"
           style="display:inline;font-weight:bold;font-size:11.2889px;font-family:Arial;-inkscape-font-specification:'Arial, Bold';fill:#1a1a1a;stroke:#ffffff;stroke-width:0"
           inkscape:label="80%"><path
             d="m 45.364442,33.476778 q -0.600826,-0.25356 -0.876434,-0.694532 -0.270095,-0.446485 -0.270095,-0.975652 0,-0.903994 0.628386,-1.493795 0.633898,-0.589801 1.796963,-0.589801 1.152042,0 1.78594,0.589801 0.63941,0.589801 0.63941,1.493795 0,0.56224 -0.292144,1.003213 -0.292145,0.43546 -0.821312,0.666971 0.672483,0.270095 1.019749,0.788238 0.352779,0.518143 0.352779,1.196139 0,1.118968 -0.716581,1.819012 -0.711068,0.700044 -1.896183,0.700044 -1.102431,0 -1.835548,-0.578777 -0.865409,-0.683507 -0.865409,-1.874133 0,-0.655947 0.325217,-1.201651 0.325218,-0.551216 1.025262,-0.848872 z m 0.319705,-1.559941 q 0,0.463021 0.259071,0.722093 0.264584,0.259071 0.700044,0.259071 0.440973,0 0.705557,-0.259071 0.264583,-0.264584 0.264583,-0.727605 0,-0.435461 -0.264583,-0.694532 -0.259072,-0.264584 -0.68902,-0.264584 -0.446485,0 -0.711069,0.264584 -0.264583,0.264583 -0.264583,0.700044 z m -0.143316,3.461635 q 0,0.639411 0.325217,0.997701 0.33073,0.35829 0.821312,0.35829 0.479557,0 0.79375,-0.341754 0.314194,-0.347265 0.314194,-0.9977 0,-0.567752 -0.319706,-0.909506 -0.319705,-0.347266 -0.810287,-0.347266 -0.567752,0 -0.848872,0.391363 -0.275608,0.391363 -0.275608,0.848872 z"
             id="path6557" /><path
             d="m 52.932635,29.722998 q 1.17409,0 1.835549,0.837848 0.788239,0.992188 0.788239,3.290758 0,2.293058 -0.793751,3.296271 -0.655947,0.826824 -1.830037,0.826824 -1.179602,0 -1.901694,-0.903994 -0.722093,-0.909506 -0.722093,-3.235637 0,-2.282034 0.793751,-3.285246 0.655946,-0.826824 1.830036,-0.826824 z m 0,1.284333 q -0.28112,0 -0.501606,0.181901 -0.220487,0.176389 -0.341754,0.63941 -0.159853,0.600826 -0.159853,2.022962 0,1.422137 0.143316,1.956817 0.143317,0.529167 0.358291,0.705556 0.220486,0.176389 0.501606,0.176389 0.28112,0 0.501607,-0.176389 0.220486,-0.181901 0.341753,-0.644923 0.159853,-0.595313 0.159853,-2.01745 0,-1.422136 -0.143316,-1.951304 -0.143316,-0.534679 -0.363803,-0.711068 -0.214974,-0.181901 -0.496094,-0.181901 z"
             id="path6559" /><path
             d="m 62.876568,31.751472 q 0,-1.085895 0.474046,-1.60955 0.479558,-0.523655 1.295357,-0.523655 0.84336,0 1.317406,0.523655 0.479558,0.518143 0.479558,1.60955 0,1.085895 -0.479558,1.60955 -0.474046,0.523655 -1.289845,0.523655 -0.84336,0 -1.322918,-0.518142 -0.474046,-0.523656 -0.474046,-1.615063 z m 1.207163,-0.01102 q 0,0.788238 0.181901,1.058334 0.137804,0.198438 0.380339,0.198438 0.248047,0 0.385851,-0.198438 0.176389,-0.270096 0.176389,-1.058334 0,-0.788239 -0.176389,-1.052822 -0.137804,-0.20395 -0.385851,-0.20395 -0.242535,0 -0.380339,0.198437 -0.181901,0.270096 -0.181901,1.058335 z m 1.741842,6.405128 h -1.146529 l 4.304996,-8.527309 h 1.113456 z m 2.50252,-2.122181 q 0,-1.085895 0.474046,-1.60955 0.479557,-0.523655 1.306381,-0.523655 0.832336,0 1.306382,0.523655 0.479558,0.523655 0.479558,1.60955 0,1.091407 -0.479558,1.615062 -0.474046,0.523655 -1.289845,0.523655 -0.843361,0 -1.322918,-0.523655 -0.474046,-0.523655 -0.474046,-1.615062 z m 1.207163,-0.0055 q 0,0.788238 0.181901,1.052822 0.137804,0.20395 0.380339,0.20395 0.248047,0 0.380339,-0.198438 0.181901,-0.270096 0.181901,-1.058334 0,-0.788239 -0.176389,-1.058335 -0.137804,-0.198437 -0.385851,-0.198437 -0.248047,0 -0.380339,0.198437 -0.181901,0.270096 -0.181901,1.058335 z"
             id="path6561" /></g><g
           aria-label="±"
           id="text5876"
           style="display:inline;font-weight:bold;font-size:11.2889px;font-family:Arial;-inkscape-font-specification:'Arial, Bold';fill:#1a1a1a;stroke:#ffffff;stroke-width:0"
           inkscape:label="plusminus"><path
             d="m 30.069694,26.255811 v -2.100132 h -2.116668 v -1.449698 h 2.116668 v -2.100132 h 1.411113 v 2.100132 h 2.122181 v 1.449698 h -2.122181 v 2.100132 z m -2.116668,1.962329 v -1.449698 h 5.649962 v 1.449698 z"
             id="path6580" /></g></g><g
         aria-label="Range"
         id="text1457"
         style="display:inline;font-weight:bold;font-size:7.76111px;font-family:Arial;-inkscape-font-specification:'Arial, Bold';fill:#1a1a1a;stroke-width:0.264583"
         inkscape:label="range"><path
           d="m 41.013871,77.00618 v -5.55556 h 2.360924 q 0.890557,0 1.292255,0.151584 0.405488,0.147794 0.648022,0.530545 0.242535,0.38275 0.242535,0.875398 0,0.625285 -0.367592,1.034562 -0.367591,0.405488 -1.098985,0.511597 0.363802,0.212218 0.598758,0.466121 0.238745,0.253904 0.640443,0.901926 l 0.678339,1.083827 h -1.34152 l -0.810975,-1.208884 q -0.432015,-0.648022 -0.591179,-0.814765 -0.159163,-0.170532 -0.337274,-0.231166 -0.178112,-0.06442 -0.564651,-0.06442 h -0.227377 v 2.319238 z m 1.121723,-3.206006 h 0.829924 q 0.807185,0 1.008034,-0.06821 0.200849,-0.06821 0.314538,-0.234956 0.113688,-0.166742 0.113688,-0.416856 0,-0.280431 -0.151584,-0.450963 -0.147795,-0.174322 -0.420647,-0.219797 -0.136425,-0.01895 -0.818554,-0.01895 h -0.875399 z"
           id="path6916" /><path
           d="m 47.403145,74.209452 -0.96635,-0.174322 q 0.162953,-0.583599 0.560862,-0.86403 0.397908,-0.280431 1.182356,-0.280431 0.712446,0 1.06109,0.170533 0.348643,0.166742 0.488859,0.428225 0.144005,0.257693 0.144005,0.951191 l -0.01137,1.24299 q 0,0.530544 0.04926,0.784448 0.05305,0.250114 0.193269,0.538124 h -1.05351 q -0.04169,-0.106109 -0.102319,-0.314537 -0.02653,-0.09474 -0.0379,-0.125057 -0.272851,0.265272 -0.583599,0.397908 -0.310748,0.132636 -0.663181,0.132636 -0.621495,0 -0.981507,-0.337274 -0.356223,-0.337275 -0.356223,-0.852661 0,-0.341065 0.162953,-0.606337 0.162953,-0.269062 0.454752,-0.409277 0.29559,-0.144005 0.848872,-0.250114 0.746552,-0.140216 1.034562,-0.261483 v -0.106109 q 0,-0.306958 -0.151584,-0.435804 -0.151585,-0.132637 -0.572231,-0.132637 -0.28422,0 -0.443383,0.113689 -0.159164,0.109898 -0.257693,0.390329 z m 1.424891,0.86403 q -0.204639,0.06821 -0.648023,0.162953 -0.443383,0.09474 -0.579809,0.18569 -0.208428,0.147795 -0.208428,0.375171 0,0.223587 0.166742,0.38654 0.166743,0.162953 0.424436,0.162953 0.28801,0 0.549493,-0.189481 0.193269,-0.144005 0.253903,-0.352433 0.04169,-0.136426 0.04169,-0.519176 z"
           id="path6918" /><path
           d="m 54.584445,77.00618 h -1.064879 v -2.053966 q 0,-0.651812 -0.06821,-0.841292 -0.06821,-0.19327 -0.223586,-0.299379 -0.151585,-0.106109 -0.367592,-0.106109 -0.276641,0 -0.496438,0.151585 -0.219797,0.151584 -0.303169,0.401698 -0.07958,0.250114 -0.07958,0.924663 v 1.8228 h -1.064879 v -4.02456 h 0.989087 v 0.591178 q 0.526755,-0.682129 1.326361,-0.682129 0.352433,0 0.644233,0.128847 0.2918,0.125057 0.439594,0.322116 0.151584,0.19706 0.208428,0.447174 0.06063,0.250114 0.06063,0.716235 z"
           id="path6920" /><path
           d="m 55.565953,77.271452 1.216463,0.147795 q 0.03032,0.212218 0.140215,0.291799 0.151584,0.113688 0.47749,0.113688 0.416857,0 0.625285,-0.125057 0.140215,-0.08337 0.212218,-0.269061 0.04927,-0.132637 0.04927,-0.488859 v -0.587389 q -0.477491,0.651812 -1.205095,0.651812 -0.810975,0 -1.284676,-0.685919 -0.371381,-0.541913 -0.371381,-1.349099 0,-1.011824 0.48507,-1.546158 0.488859,-0.534335 1.212673,-0.534335 0.746552,0 1.231621,0.655602 V 72.98162 h 0.996666 v 3.611493 q 0,0.712446 -0.117477,1.064879 -0.117478,0.352433 -0.329696,0.553282 -0.212218,0.200849 -0.568441,0.314537 -0.352433,0.113688 -0.894346,0.113688 -1.023193,0 -1.451419,-0.352433 -0.428225,-0.348644 -0.428225,-0.886767 0,-0.05306 0.0038,-0.128847 z m 0.95119,-2.360923 q 0,0.640443 0.246325,0.939821 0.250113,0.29559 0.613915,0.29559 0.39033,0 0.659392,-0.303169 0.269062,-0.306958 0.269062,-0.905715 0,-0.625285 -0.257694,-0.928453 -0.257693,-0.303169 -0.651812,-0.303169 -0.38275,0 -0.632863,0.299379 -0.246325,0.295589 -0.246325,0.905716 z"
           id="path6922" /><path
           d="m 62.735884,75.725294 1.061089,0.178111 q -0.204638,0.583599 -0.648022,0.890557 -0.439594,0.303168 -1.102775,0.303168 -1.04972,0 -1.553738,-0.685918 -0.397908,-0.549493 -0.397908,-1.386995 0,-1.000456 0.522965,-1.565107 0.522966,-0.568441 1.322572,-0.568441 0.898136,0 1.417312,0.594968 0.519176,0.591179 0.496438,1.815221 h -2.667881 q 0.01137,0.4737 0.257693,0.738973 0.246324,0.261482 0.613916,0.261482 0.250114,0 0.420646,-0.136425 0.170532,-0.136426 0.257693,-0.439594 z m 0.06063,-1.076248 q -0.01137,-0.462332 -0.238745,-0.701077 -0.227377,-0.242535 -0.553283,-0.242535 -0.348643,0 -0.576019,0.253904 -0.227377,0.253903 -0.223587,0.689708 z"
           id="path6924" /></g></g><g
       id="g2302"
       inkscape:label="secondary"
       style="display:inline"><g
         id="g4352"
         inkscape:label="digits"><g
           style="display:inline;fill:#1a1a1a;stroke:#ffffff;stroke-width:0.25"
           id="g2071"
           transform="matrix(3.0667402,0,0,3.0667402,234.56339,15.334822)"
           inkscape:label="1"><path
             id="path2055"
             d="M 8.1969934,1 7.1411192,2 h -4.75 L 1.4469933,1 2.5028675,0 h 4.75 z"
             sodipodi:nodetypes="ccccccc"
             inkscape:label="a"
             style="fill:#1a1a1a" /><path
             id="path2057"
             d="M 7.75,9 6.8058742,8 7.1411192,2 8.1969934,1 9.1411192,2 8.8058742,8 Z"
             sodipodi:nodetypes="ccccccc"
             inkscape:label="b"
             style="fill:#1a1a1a" /><path
             id="path2059"
             d="M 7.3030066,17 6.3588808,16 6.6941258,10 7.75,9 l 0.9441258,1 -0.335245,6 z"
             sodipodi:nodetypes="ccccccc"
             inkscape:label="c"
             style="fill:#1a1a1a" /><path
             id="path2061"
             d="M 0.55300661,17 1.6088808,16 h 4.75 l 0.9441258,1 -1.0558741,1 h -4.75 z"
             sodipodi:nodetypes="ccccccc"
             inkscape:label="d"
             style="fill:#1a1a1a" /><path
             id="path2063"
             d="m 1,9 0.9441258,1 -0.335245,6 -1.05587419,1 -0.94412579,-1 0.33524502,-6 z"
             inkscape:label="e"
             style="fill:#1a1a1a" /><path
             id="path2065"
             d="M 1.4469933,1 2.3911192,2 2.0558742,8 1,9 0.05587416,8 0.39111918,2 Z"
             inkscape:label="f"
             style="fill:#1a1a1a" /><path
             id="path2067"
             d="m 7.75,9 -1.0558742,1 h -4.75 L 1,9 2.0558742,8 h 4.75 z"
             sodipodi:nodetypes="ccccccc"
             inkscape:label="g"
             style="fill:#1a1a1a" /></g><g
           style="display:inline;fill:#1a1a1a;stroke:#ffffff;stroke-width:0.25"
           id="g2098"
           transform="matrix(3.0667402,0,0,3.0667402,200.72943,15.334822)"
           inkscape:label="2"><path
             id="path2082"
             d="M 8.1969934,1 7.1411192,2 h -4.75 L 1.4469933,1 2.5028675,0 h 4.75 z"
             sodipodi:nodetypes="ccccccc"
             inkscape:label="a"
             style="fill:#1a1a1a" /><path
             id="path2084"
             d="M 7.75,9 6.8058742,8 7.1411192,2 8.1969934,1 9.1411192,2 8.8058742,8 Z"
             sodipodi:nodetypes="ccccccc"
             inkscape:label="b"
             style="fill:#1a1a1a" /><path
             id="path2086"
             d="M 7.3030066,17 6.3588808,16 6.6941258,10 7.75,9 l 0.9441258,1 -0.335245,6 z"
             sodipodi:nodetypes="ccccccc"
             inkscape:label="c"
             style="fill:#1a1a1a" /><path
             id="path2088"
             d="M 0.55300661,17 1.6088808,16 h 4.75 l 0.9441258,1 -1.0558741,1 h -4.75 z"
             sodipodi:nodetypes="ccccccc"
             inkscape:label="d"
             style="fill:#1a1a1a" /><path
             id="path2090"
             d="m 1,9 0.9441258,1 -0.335245,6 -1.05587419,1 -0.94412579,-1 0.33524502,-6 z"
             inkscape:label="e"
             style="fill:#1a1a1a" /><path
             id="path2092"
             d="M 1.4469933,1 2.3911192,2 2.0558742,8 1,9 0.05587416,8 0.39111918,2 Z"
             inkscape:label="f"
             style="fill:#1a1a1a" /><path
             id="path2094"
             d="m 7.75,9 -1.0558742,1 h -4.75 L 1,9 2.0558742,8 h 4.75 z"
             sodipodi:nodetypes="ccccccc"
             inkscape:label="g"
             style="fill:#1a1a1a" /><rect
             style="fill:#1a1a1a;stroke-width:0.264672"
             id="rect2096"
             width="5.6774192"
             height="8.5218515"
             x="126.31216"
             y="131.02348"
             transform="matrix(0.23622048,0,-0.00865599,0.23606183,-19.72695,-14.888748)"
             inkscape:label="dot" /></g><g
           style="display:inline;fill:#1a1a1a;stroke:#ffffff;stroke-width:0.25"
           id="g2116"
           transform="matrix(3.0667402,0,0,3.0667402,166.89548,15.334822)"
           inkscape:label="3"><path
             id="path2100"
             d="M 8.1969934,1 7.1411192,2 h -4.75 L 1.4469933,1 2.5028675,0 h 4.75 z"
             sodipodi:nodetypes="ccccccc"
             inkscape:label="a"
             style="fill:#1a1a1a" /><path
             id="path2102"
             d="M 7.75,9 6.8058742,8 7.1411192,2 8.1969934,1 9.1411192,2 8.8058742,8 Z"
             sodipodi:nodetypes="ccccccc"
             inkscape:label="b"
             style="fill:#1a1a1a" /><path
             id="path2104"
             d="M 7.3030066,17 6.3588808,16 6.6941258,10 7.75,9 l 0.9441258,1 -0.335245,6 z"
             sodipodi:nodetypes="ccccccc"
             inkscape:label="c"
             style="fill:#1a1a1a" /><path
             id="path2106"
             d="M 0.55300661,17 1.6088808,16 h 4.75 l 0.9441258,1 -1.0558741,1 h -4.75 z"
             sodipodi:nodetypes="ccccccc"
             inkscape:label="d"
             style="fill:#1a1a1a" /><path
             id="path2108"
             d="m 1,9 0.9441258,1 -0.335245,6 -1.05587419,1 -0.94412579,-1 0.33524502,-6 z"
             inkscape:label="e"
             style="fill:#1a1a1a" /><path
             id="path2110"
             d="M 1.4469933,1 2.3911192,2 2.0558742,8 1,9 0.05587416,8 0.39111918,2 Z"
             inkscape:label="f"
             style="fill:#1a1a1a" /><path
             id="path2112"
             d="m 7.75,9 -1.0558742,1 h -4.75 L 1,9 2.0558742,8 h 4.75 z"
             sodipodi:nodetypes="ccccccc"
             inkscape:label="g"
             style="fill:#1a1a1a" /><rect
             style="fill:#1a1a1a;stroke-width:0.264672"
             id="rect2114"
             width="5.6774192"
             height="8.5218515"
             x="126.31216"
             y="131.02348"
             transform="matrix(0.23622048,0,-0.00865599,0.23606183,-19.72695,-14.888748)"
             inkscape:label="dot" /></g><g
           style="display:inline;fill:#1a1a1a;stroke:#ffffff;stroke-width:0.25"
           id="g2134"
           transform="matrix(3.0667402,0,0,3.0667402,133.06152,15.334822)"
           inkscape:label="4"><path
             id="path2118"
             d="M 8.1969934,1 7.1411192,2 h -4.75 L 1.4469933,1 2.5028675,0 h 4.75 z"
             sodipodi:nodetypes="ccccccc"
             inkscape:label="a"
             style="fill:#1a1a1a" /><path
             id="path2120"
             d="M 7.75,9 6.8058742,8 7.1411192,2 8.1969934,1 9.1411192,2 8.8058742,8 Z"
             sodipodi:nodetypes="ccccccc"
             inkscape:label="b"
             style="fill:#1a1a1a" /><path
             id="path2122"
             d="M 7.3030066,17 6.3588808,16 6.6941258,10 7.75,9 l 0.9441258,1 -0.335245,6 z"
             sodipodi:nodetypes="ccccccc"
             inkscape:label="c"
             style="fill:#1a1a1a" /><path
             id="path2124"
             d="M 0.55300661,17 1.6088808,16 h 4.75 l 0.9441258,1 -1.0558741,1 h -4.75 z"
             sodipodi:nodetypes="ccccccc"
             inkscape:label="d"
             style="fill:#1a1a1a" /><path
             id="path2126"
             d="m 1,9 0.9441258,1 -0.335245,6 -1.05587419,1 -0.94412579,-1 0.33524502,-6 z"
             inkscape:label="e"
             style="fill:#1a1a1a" /><path
             id="path2128"
             d="M 1.4469933,1 2.3911192,2 2.0558742,8 1,9 0.05587416,8 0.39111918,2 Z"
             inkscape:label="f"
             style="fill:#1a1a1a" /><path
             id="path2130"
             d="m 7.75,9 -1.0558742,1 h -4.75 L 1,9 2.0558742,8 h 4.75 z"
             sodipodi:nodetypes="ccccccc"
             inkscape:label="g"
             style="fill:#1a1a1a" /><rect
             style="fill:#1a1a1a;stroke-width:0.264672"
             id="rect2132"
             width="5.6774192"
             height="8.5218515"
             x="126.31216"
             y="131.02348"
             transform="matrix(0.23622048,0,-0.00865599,0.23606183,-19.72695,-14.888748)"
             inkscape:label="dot" /></g></g><g
         id="g4414"
         inkscape:label="unit"
         transform="translate(25.548387,-72.032258)"><g
           id="g4366"
           inkscape:label="ohmunit"
           style="display:inline"
           transform="matrix(0.91855682,0,0,0.91855682,-1.2301758,4.0154862)"><g
             aria-label="Ω"
             id="text4356"
             style="font-weight:bold;font-size:14.1111px;font-family:Arial;-inkscape-font-specification:'Arial, Bold';fill:#1a1a1a;stroke-width:0.264583"
             inkscape:label="ohm"><path
               d="m 285.61072,118.25 v -1.70188 h 1.95682 q -1.79834,-1.88791 -1.79834,-4.06521 0,-1.90169 1.28846,-3.20393 1.28847,-1.30225 3.53467,-1.30225 2.22553,0 3.52088,1.29536 1.29536,1.29535 1.29536,3.21082 0,2.1773 -1.79834,4.06521 h 1.9637 V 118.25 h -4.62331 v -1.62608 q 1.16444,-0.43409 1.757,-1.4056 0.59944,-0.97152 0.59944,-2.23931 0,-1.30225 -0.68902,-2.28065 -0.68213,-0.97841 -2.02571,-0.97841 -1.3367,0 -2.02572,0.97152 -0.68901,0.97151 -0.68901,2.28754 0,1.27468 0.59255,2.2462 0.59945,0.96462 1.76389,1.39871 V 118.25 Z"
               id="path6883" /></g><g
             aria-label="M"
             id="text4360"
             style="font-weight:bold;font-size:14.1111px;font-family:Arial;-inkscape-font-specification:'Arial, Bold';fill:#1a1a1a;stroke-width:0.264583"
             inkscape:label="mega"><path
               d="m 267.03942,118.25 v -10.10101 h 3.05235 l 1.83279,6.89018 1.81212,-6.89018 h 3.05924 V 118.25 h -1.8948 v -7.95127 l -2.00504,7.95127 h -1.9637 l -1.99816,-7.95127 V 118.25 Z"
               id="path6886" /></g><g
             aria-label="k"
             id="text4364"
             style="font-weight:bold;font-size:14.1111px;font-family:Arial;-inkscape-font-specification:'Arial, Bold';fill:#1a1a1a;stroke-width:0.264583"
             inkscape:label="kilo"><path
               d="m 277.98427,118.25 v -10.10101 h 1.93614 v 5.36056 l 2.26687,-2.57693 h 2.38401 l -2.50114,2.67339 2.68028,4.64399 h -2.08772 l -1.83968,-3.28662 -0.90262,0.94396 V 118.25 Z"
               id="path6889" /></g></g><g
           id="g4389"
           inkscape:label="henryunit"
           style="display:inline"
           transform="matrix(0.91855682,0,0,0.91855682,6.2996437,15.42337)"><g
             aria-label="H"
             id="text4387"
             style="font-weight:bold;font-size:14.1111px;font-family:Arial;-inkscape-font-specification:'Arial, Bold';fill:#1a1a1a;stroke-width:0.264583"
             inkscape:label="H"><path
               d="m 278.9135,130.93549 v -10.10102 h 2.0395 v 3.97564 h 3.9963 v -3.97564 h 2.0395 v 10.10102 h -2.0395 v -4.41661 h -3.9963 v 4.41661 z"
               id="path6898" /></g><g
             id="g8855"
             inkscape:label="mu"
             transform="matrix(1.0886643,0,0,1.0886643,-24.692863,-11.587537)"
             style="display:inline"><g
               aria-label="μ"
               id="g8845"
               style="font-weight:bold;font-size:14.1111px;font-family:Arial;-inkscape-font-specification:'Arial, Bold';fill:#1a1a1a;stroke-width:0.264583"
               inkscape:label="micro"><path
                 d="m 269.6051,126.99216 h 1.93614 v 3.32796 q 0,0.93018 0.0965,1.45383 0.0965,0.52366 0.43408,0.84749 0.34451,0.32384 0.81993,0.32384 0.49609,0 0.85438,-0.33762 0.36518,-0.33762 0.46854,-0.81993 0.10335,-0.48231 0.10335,-1.44694 v -3.34863 h 1.93614 v 7.31738 h -1.78456 v -0.88194 q -0.54432,1.0473 -1.4745,1.0473 -0.99218,0 -1.45383,-1.0473 v 3.66557 h -1.93614 z"
                 id="path8843" /></g><g
               aria-label="m"
               id="g8849"
               style="font-weight:bold;font-size:14.1111px;font-family:Arial;-inkscape-font-specification:'Arial, Bold';display:inline;fill:#1a1a1a;stroke-width:0.264583"
               inkscape:label="milli"><path
                 d="m 267.53256,123.61811 h 1.78456 v 0.99908 q 0.95774,-1.16445 2.28065,-1.16445 0.7028,0 1.21956,0.28939 0.51677,0.28939 0.8475,0.87506 0.48231,-0.58567 1.04041,-0.87506 0.55811,-0.28939 1.19201,-0.28939 0.80615,0 1.36425,0.33073 0.55811,0.32384 0.83372,0.95774 0.19981,0.46853 0.19981,1.51584 v 4.67844 h -1.93614 v -4.18235 q 0,-1.08865 -0.19982,-1.40559 -0.26871,-0.41342 -0.82682,-0.41342 -0.40652,0 -0.76481,0.24805 -0.35829,0.24805 -0.51676,0.73036 -0.15848,0.47542 -0.15848,1.50895 v 3.514 h -1.93614 v -4.01009 q 0,-1.06798 -0.10335,-1.37804 -0.10335,-0.31006 -0.32384,-0.46164 -0.2136,-0.15159 -0.58567,-0.15159 -0.44786,0 -0.80615,0.24116 -0.35829,0.24116 -0.51676,0.69591 -0.15159,0.45475 -0.15159,1.50895 v 3.55534 h -1.93614 z"
                 id="path8847" /></g><g
               aria-label="n"
               id="g8853"
               style="font-weight:bold;font-size:14.1111px;font-family:Arial;-inkscape-font-specification:'Arial, Bold';display:inline;fill:#1a1a1a;stroke:#ffffff;stroke-width:0"
               inkscape:label="nano"
               transform="translate(0.08870968)"><path
                 d="m 273.856,130.93994 h -1.93614 v -3.73448 q 0,-1.18511 -0.12402,-1.52962 -0.12403,-0.3514 -0.40652,-0.54433 -0.27561,-0.19292 -0.66835,-0.19292 -0.50299,0 -0.90262,0.27561 -0.39963,0.2756 -0.55121,0.73036 -0.1447,0.45475 -0.1447,1.6812 v 3.31418 h -1.93614 v -7.31738 h 1.79834 v 1.07487 q 0.95774,-1.24023 2.41157,-1.24023 0.64078,0 1.17133,0.23427 0.53054,0.22737 0.79926,0.58566 0.27561,0.35829 0.37896,0.81304 0.11024,0.45476 0.11024,1.30225 z"
                 id="path8851" /></g></g><g
             id="g8883"
             inkscape:label="mu"
             transform="matrix(1.0886643,0,0,1.0886643,-24.772869,-25.728985)"
             style="display:inline"><g
               aria-label="μ"
               id="g8873"
               style="font-weight:bold;font-size:14.1111px;font-family:Arial;-inkscape-font-specification:'Arial, Bold';fill:#1a1a1a;stroke-width:0.264583"
               inkscape:label="micro"><path
                 d="m 269.6051,126.99216 h 1.93614 v 3.32796 q 0,0.93018 0.0965,1.45383 0.0965,0.52366 0.43408,0.84749 0.34451,0.32384 0.81993,0.32384 0.49609,0 0.85438,-0.33762 0.36518,-0.33762 0.46854,-0.81993 0.10335,-0.48231 0.10335,-1.44694 v -3.34863 h 1.93614 v 7.31738 h -1.78456 v -0.88194 q -0.54432,1.0473 -1.4745,1.0473 -0.99218,0 -1.45383,-1.0473 v 3.66557 h -1.93614 z"
                 id="path8871" /></g><g
               aria-label="m"
               id="g8877"
               style="font-weight:bold;font-size:14.1111px;font-family:Arial;-inkscape-font-specification:'Arial, Bold';display:inline;fill:#1a1a1a;stroke-width:0.264583"
               inkscape:label="milli"><path
                 d="m 267.53256,123.61811 h 1.78456 v 0.99908 q 0.95774,-1.16445 2.28065,-1.16445 0.7028,0 1.21956,0.28939 0.51677,0.28939 0.8475,0.87506 0.48231,-0.58567 1.04041,-0.87506 0.55811,-0.28939 1.19201,-0.28939 0.80615,0 1.36425,0.33073 0.55811,0.32384 0.83372,0.95774 0.19981,0.46853 0.19981,1.51584 v 4.67844 h -1.93614 v -4.18235 q 0,-1.08865 -0.19982,-1.40559 -0.26871,-0.41342 -0.82682,-0.41342 -0.40652,0 -0.76481,0.24805 -0.35829,0.24805 -0.51676,0.73036 -0.15848,0.47542 -0.15848,1.50895 v 3.514 h -1.93614 v -4.01009 q 0,-1.06798 -0.10335,-1.37804 -0.10335,-0.31006 -0.32384,-0.46164 -0.2136,-0.15159 -0.58567,-0.15159 -0.44786,0 -0.80615,0.24116 -0.35829,0.24116 -0.51676,0.69591 -0.15159,0.45475 -0.15159,1.50895 v 3.55534 h -1.93614 z"
                 id="path8875" /></g><g
               aria-label="n"
               id="g8881"
               style="font-weight:bold;font-size:14.1111px;font-family:Arial;-inkscape-font-specification:'Arial, Bold';display:inline;fill:#1a1a1a;stroke:#ffffff;stroke-width:0"
               inkscape:label="nano"
               transform="translate(0.08870968)"><path
                 d="m 273.856,130.93994 h -1.93614 v -3.73448 q 0,-1.18511 -0.12402,-1.52962 -0.12403,-0.3514 -0.40652,-0.54433 -0.27561,-0.19292 -0.66835,-0.19292 -0.50299,0 -0.90262,0.27561 -0.39963,0.2756 -0.55121,0.73036 -0.1447,0.45475 -0.1447,1.6812 v 3.31418 h -1.93614 v -7.31738 h 1.79834 v 1.07487 q 0.95774,-1.24023 2.41157,-1.24023 0.64078,0 1.17133,0.23427 0.53054,0.22737 0.79926,0.58566 0.27561,0.35829 0.37896,0.81304 0.11024,0.45476 0.11024,1.30225 z"
                 id="path8879" /></g></g></g><g
           id="g4434"
           inkscape:label="faradunit"
           style="display:inline"
           transform="matrix(0.91855682,0,0,0.91855682,-1.4774694,-9.9999112)"><g
             aria-label="p"
             id="text4418"
             style="font-weight:bold;font-size:14.1111px;font-family:Arial;-inkscape-font-specification:'Arial, Bold';fill:#1a1a1a;stroke-width:0.264583"
             inkscape:label="p"><path
               d="m 267.04239,137.23504 h 1.80523 v 1.07487 q 0.3514,-0.55122 0.95085,-0.89573 0.59944,-0.34451 1.3298,-0.34451 1.27469,0 2.16352,0.99908 0.88883,0.99908 0.88883,2.78363 0,1.83279 -0.89572,2.85254 -0.89572,1.01286 -2.17041,1.01286 -0.60634,0 -1.10243,-0.24116 -0.4892,-0.24115 -1.03353,-0.82682 v 3.68625 h -1.93614 z m 1.91547,3.53466 q 0,1.23335 0.48921,1.8259 0.4892,0.58567 1.192,0.58567 0.67524,0 1.1231,-0.53744 0.44786,-0.54432 0.44786,-1.77767 0,-1.15066 -0.46164,-1.70876 -0.46164,-0.55811 -1.14377,-0.55811 -0.70969,0 -1.17822,0.55122 -0.46854,0.54432 -0.46854,1.61919 z"
               id="path6901" /></g><g
             aria-label="F"
             id="text4432"
             style="font-weight:bold;font-size:14.1111px;font-family:Arial;-inkscape-font-specification:'Arial, Bold';fill:#1a1a1a;stroke-width:0.264583"
             inkscape:label="F"><path
               d="m 287.19563,144.44153 v -10.10101 h 6.92464 v 1.70876 h -4.88514 v 2.3909 h 4.21679 v 1.70876 h -4.21679 v 4.29259 z"
               id="path6910" /></g></g><g
           aria-label="%"
           id="text4610"
           style="font-weight:bold;font-size:12.9618px;font-family:Arial;-inkscape-font-specification:'Arial, Bold';fill:#1a1a1a;stroke-width:0.243035"
           inkscape:label="percent"><path
             d="m 239.81664,129.36639 q 0,-1.24682 0.54429,-1.84807 0.55063,-0.60126 1.48732,-0.60126 0.96834,0 1.51263,0.60126 0.55062,0.59492 0.55062,1.84807 0,1.24681 -0.55062,1.84807 -0.54429,0.60125 -1.48099,0.60125 -0.96833,0 -1.51896,-0.59492 -0.54429,-0.60126 -0.54429,-1.8544 z m 1.38605,-0.0127 q 0,0.90505 0.20886,1.21517 0.15822,0.22784 0.4367,0.22784 0.2848,0 0.44303,-0.22784 0.20253,-0.31012 0.20253,-1.21517 0,-0.90505 -0.20253,-1.20884 -0.15823,-0.23417 -0.44303,-0.23417 -0.27848,0 -0.4367,0.22784 -0.20886,0.31012 -0.20886,1.21517 z m 1.99997,7.3543 h -1.31644 l 4.94295,-9.79097 h 1.27846 z m 2.87336,-2.43667 q 0,-1.24681 0.5443,-1.84806 0.55062,-0.60126 1.49997,-0.60126 0.95568,0 1.49998,0.60126 0.55062,0.60125 0.55062,1.84806 0,1.25315 -0.55062,1.8544 -0.5443,0.60126 -1.48099,0.60126 -0.96834,0 -1.51896,-0.60126 -0.5443,-0.60125 -0.5443,-1.8544 z m 1.38605,-0.006 q 0,0.90504 0.20886,1.20884 0.15823,0.23417 0.4367,0.23417 0.28481,0 0.4367,-0.22785 0.20886,-0.31012 0.20886,-1.21516 0,-0.90505 -0.20253,-1.21517 -0.15822,-0.22785 -0.44303,-0.22785 -0.2848,0 -0.4367,0.22785 -0.20886,0.31012 -0.20886,1.21517 z"
             id="path6913" /></g></g><g
         id="g5682"
         inkscape:label="quantity"><g
           aria-label="ESR"
           id="text5162"
           style="font-weight:bold;font-size:14.1111px;font-family:Arial;-inkscape-font-specification:'Arial, Bold';fill:#1a1a1a;stroke:#ffffff;stroke-width:0"
           inkscape:label="ESR"><path
             d="M 93.360218,42.797047 V 32.696035 h 7.489632 v 1.708766 h -5.450137 v 2.23931 h 5.071177 v 1.701876 h -5.071177 v 2.749184 h 5.643057 v 1.701876 z"
             id="path6862" /><path
             d="m 102.25545,39.510428 1.98437,-0.192925 q 0.17915,0.999077 0.72347,1.467609 0.55122,0.468533 1.48139,0.468533 0.9853,0 1.48139,-0.413411 0.50298,-0.420301 0.50298,-0.978406 0,-0.35829 -0.21359,-0.606337 -0.20671,-0.254937 -0.73036,-0.440972 -0.35829,-0.124023 -1.63298,-0.440972 -1.63986,-0.40652 -2.30132,-0.999076 -0.93017,-0.833713 -0.93017,-2.032605 0,-0.771701 0.43408,-1.440049 0.44097,-0.675238 1.2609,-1.026638 0.82683,-0.351399 1.99127,-0.351399 1.90169,0 2.85942,0.833712 0.96463,0.833713 1.01286,2.22553 l -2.03949,0.08957 q -0.13092,-0.778591 -0.565,-1.11621 -0.42719,-0.34451 -1.28846,-0.34451 -0.88884,0 -1.39182,0.36518 -0.32384,0.234267 -0.32384,0.627007 0,0.35829 0.30317,0.613227 0.38585,0.323838 1.87413,0.675238 1.48828,0.351399 2.19797,0.730359 0.71658,0.372071 1.11621,1.026638 0.40652,0.647678 0.40652,1.605413 0,0.868164 -0.48231,1.626084 -0.48232,0.757921 -1.36426,1.129991 -0.88194,0.365179 -2.19797,0.365179 -1.91547,0 -2.94211,-0.881943 -1.02664,-0.888834 -1.22645,-2.58382 z"
             id="path6864" /><path
             d="M 112.1911,42.797047 V 32.696035 h 4.29258 q 1.6192,0 2.34955,0.275607 0.73725,0.268717 1.17823,0.964626 0.44097,0.695909 0.44097,1.591633 0,1.13688 -0.66835,1.88102 -0.66835,0.73725 -1.99815,0.930176 0.66145,0.38585 1.08865,0.847492 0.43408,0.461643 1.16444,1.639865 l 1.23334,1.970593 h -2.43913 l -1.47449,-2.19797 q -0.78549,-1.178221 -1.07487,-1.481389 -0.28939,-0.310059 -0.61323,-0.420302 -0.32384,-0.117133 -1.02664,-0.117133 h -0.41341 v 4.216794 z m 2.03949,-5.829097 h 1.50895 q 1.46761,0 1.83279,-0.124024 0.36518,-0.124023 0.57189,-0.427191 0.2067,-0.303168 0.2067,-0.757921 0,-0.509873 -0.27561,-0.819932 -0.26871,-0.316948 -0.76481,-0.399631 -0.24804,-0.03445 -1.48828,-0.03445 h -1.59163 z"
             id="path6866" /></g><g
           aria-label="RP"
           id="text5216"
           style="font-weight:bold;font-size:14.1111px;font-family:Arial;-inkscape-font-specification:'Arial, Bold';fill:#1a1a1a;stroke:#ffffff;stroke-width:0"
           inkscape:label="RP"><path
             d="M 93.360219,56.11277 V 46.011758 h 4.292585 q 1.619194,0 2.349556,0.275607 0.73725,0.268718 1.17822,0.964626 0.44097,0.695909 0.44097,1.591633 0,1.136881 -0.66835,1.881021 -0.66834,0.73725 -1.998151,0.930175 0.661458,0.38585 1.088651,0.847493 0.43408,0.461642 1.16444,1.639864 l 1.23334,1.970593 h -2.43912 l -1.474502,-2.197969 q -0.785481,-1.178222 -1.074869,-1.48139 -0.289388,-0.310058 -0.613227,-0.420301 -0.323838,-0.117134 -1.026637,-0.117134 h -0.413412 v 4.216794 z m 2.039494,-5.829097 h 1.508951 q 1.46761,0 1.83279,-0.124023 0.365179,-0.124024 0.571885,-0.427192 0.206705,-0.303168 0.206705,-0.75792 0,-0.509874 -0.275607,-0.819932 -0.268717,-0.316949 -0.764811,-0.399631 -0.248046,-0.03445 -1.48828,-0.03445 h -1.591633 z"
             id="path6869" /><path
             d="M 103.54391,56.11277 V 46.011758 h 3.27284 q 1.86035,0 2.42535,0.151584 0.86816,0.227376 1.45383,0.992187 0.58566,0.75792 0.58566,1.963703 0,0.930175 -0.33762,1.564072 -0.33762,0.633897 -0.86127,0.999077 -0.51677,0.358289 -1.0542,0.475423 -0.73036,0.144693 -2.11529,0.144693 h -1.3298 v 3.810273 z m 2.0395,-8.392246 v 2.866317 h 1.11621 q 1.20578,0 1.6123,-0.158474 0.40652,-0.158474 0.6339,-0.496093 0.23426,-0.33762 0.23426,-0.785482 0,-0.551214 -0.32383,-0.909504 -0.32384,-0.35829 -0.81994,-0.447862 -0.36518,-0.0689 -1.46761,-0.0689 z"
             id="path6871" /></g><g
           aria-label="D"
           id="text5224"
           style="font-weight:bold;font-size:14.1111px;font-family:Arial;-inkscape-font-specification:'Arial, Bold';fill:#1a1a1a;stroke:#ffffff;stroke-width:0"
           inkscape:label="D"><path
             d="m 93.360217,59.079599 h 3.72759 q 1.260904,0 1.922362,0.192925 0.888834,0.261827 1.522731,0.930175 0.6339,0.668348 0.96463,1.639864 0.33072,0.964626 0.33072,2.384004 0,1.247124 -0.31005,2.149738 -0.37896,1.10243 -1.08176,1.784558 -0.530547,0.516764 -1.433161,0.806152 -0.675238,0.213596 -1.805229,0.213596 h -3.837833 z m 2.039495,1.708766 v 6.69037 h 1.522731 q 0.854383,0 1.233343,-0.09646 0.496093,-0.124023 0.819932,-0.420301 0.330729,-0.296278 0.537435,-0.971516 0.206705,-0.682129 0.206705,-1.85346 0,-1.171332 -0.206705,-1.798339 -0.206706,-0.627007 -0.578776,-0.978406 -0.37207,-0.3514 -0.943955,-0.475423 -0.427192,-0.09646 -1.674316,-0.09646 z"
             id="path6874" /></g><g
           aria-label="Q"
           id="text5228"
           style="font-weight:bold;font-size:14.1111px;font-family:Arial;-inkscape-font-specification:'Arial, Bold';fill:#1a1a1a;stroke:#ffffff;stroke-width:0"
           inkscape:label="Q"><path
             d="m 111.90629,67.478733 q 0.75103,0.537434 1.63297,0.854383 l -0.75103,1.440049 q -0.46164,-0.137804 -0.90261,-0.378961 -0.0965,-0.04823 -1.35737,-0.895724 -0.99219,0.434082 -2.19797,0.434082 -2.32888,0 -3.6518,-1.371147 -1.31602,-1.371147 -1.31602,-3.851614 0,-2.473576 1.32291,-3.844723 1.32292,-1.378037 3.58979,-1.378037 2.2462,0 3.56222,1.378037 1.31603,1.371147 1.31603,3.844723 0,1.309136 -0.36518,2.301322 -0.27561,0.757921 -0.88194,1.46761 z m -1.63987,-1.150661 q 0.39274,-0.461643 0.58567,-1.11621 0.19981,-0.654568 0.19981,-1.502061 0,-1.750107 -0.7717,-2.61138 -0.7717,-0.868164 -2.01882,-0.868164 -1.24713,0 -2.02572,0.868164 -0.7717,0.868163 -0.7717,2.61138 0,1.770778 0.7717,2.652722 0.77859,0.875053 1.96371,0.875053 0.44097,0 0.83371,-0.144694 -0.62012,-0.406521 -1.26091,-0.633897 l 0.57189,-1.164441 q 1.00597,0.344509 1.92236,1.033528 z"
             id="path6877" /></g><g
           aria-label="θ"
           transform="scale(1.0619506,0.9416634)"
           id="text5232"
           style="font-weight:bold;font-size:15.7057px;font-family:Arial;-inkscape-font-specification:'Arial, Bold';fill:#1a1a1a;stroke:#ffffff;stroke-width:0"
           inkscape:label="theta"><path
             d="m 112.39282,62.027422 q 3.65035,0 3.65035,5.81295 0,5.80528 -3.65035,5.80528 -1.6948,0 -2.67641,-1.311364 -0.97393,-1.319034 -0.97393,-4.524591 0,-5.782275 3.65034,-5.782275 z m 1.4264,4.9157 q -0.0614,-1.917199 -0.42178,-2.538372 -0.35277,-0.621173 -1.00462,-0.621173 -0.64417,0 -1.00461,0.628842 -0.36043,0.621172 -0.41411,2.530703 z m 0,1.78683 h -2.84512 q 0.0537,1.9172 0.40644,2.538373 0.36044,0.621173 1.01228,0.621173 0.65185,0 1.00462,-0.621173 0.36043,-0.628842 0.42178,-2.538373 z"
             id="path6880" /></g></g></g><g
       aria-label="120100kHz"
       id="text5892"
       style="font-weight:bold;font-size:12.7px;font-family:Arial;-inkscape-font-specification:'Arial, Bold';fill:#1a1a1a;stroke:#ffffff;stroke-width:0"
       inkscape:label="freq"><g
         id="g6131"
         inkscape:label="f120"
         style="display:inline"><path
           d="m 13.869112,50.078835 h -1.742529 v -6.567041 q -0.95498,0.892968 -2.2510253,1.320849 v -1.581299 q 0.6821293,-0.223242 1.4820803,-0.843359 0.799951,-0.626318 1.097607,-1.457275 h 1.413867 z"
           id="path6090"
           inkscape:label="1" /><path
           d="m 22.358517,48.460329 v 1.618506 h -6.108155 q 0.09922,-0.917774 0.595313,-1.736329 0.496094,-0.824755 1.95957,-2.182812 1.178223,-1.097607 1.444873,-1.488281 0.359668,-0.539502 0.359668,-1.066602 0,-0.58291 -0.31626,-0.892969 -0.310058,-0.316259 -0.861963,-0.316259 -0.545703,0 -0.868164,0.328662 -0.322461,0.328662 -0.37207,1.091406 l -1.736328,-0.173633 q 0.155029,-1.438672 0.973584,-2.06499 0.818555,-0.626318 2.046387,-0.626318 1.345654,0 2.114599,0.725537 0.768946,0.725537 0.768946,1.804541 0,0.613916 -0.223243,1.172021 -0.217041,0.551905 -0.694531,1.159619 -0.31626,0.403077 -1.141016,1.159619 -0.824755,0.756543 -1.047998,1.00459 -0.217041,0.248047 -0.353466,0.483692 z"
           id="path6092"
           inkscape:label="2" /><path
           d="m 26.482296,40.95071 q 1.320849,0 2.06499,0.942578 0.886768,1.116211 0.886768,3.702099 0,2.579688 -0.892969,3.708301 -0.73794,0.930176 -2.058789,0.930176 -1.327051,0 -2.139405,-1.016992 -0.812353,-1.023194 -0.812353,-3.640088 0,-2.567285 0.892969,-3.695899 0.737939,-0.930175 2.058789,-0.930175 z m 0,1.444873 q -0.31626,0 -0.564307,0.204638 -0.248047,0.198438 -0.384473,0.719336 -0.179834,0.675928 -0.179834,2.27583 0,1.599903 0.161231,2.201416 0.16123,0.595313 0.403076,0.79375 0.248047,0.198438 0.564307,0.198438 0.31626,0 0.564306,-0.198438 0.248047,-0.204638 0.384473,-0.725537 0.179834,-0.669726 0.179834,-2.269629 0,-1.599902 -0.16123,-2.195214 -0.161231,-0.601514 -0.409278,-0.799952 -0.241845,-0.204638 -0.558105,-0.204638 z"
           id="path6094"
           inkscape:label="0" /></g><g
         id="g6114"
         inkscape:label="f1"><path
           d="m 35.058516,50.078835 h -1.742529 v -6.567041 q -0.954981,0.892968 -2.251026,1.320849 v -1.581299 q 0.682129,-0.223242 1.48208,-0.843359 0.799951,-0.626318 1.097608,-1.457275 h 1.413867 z"
           id="path6096"
           inkscape:label="1" /></g><path
         d="m 52.099335,50.078835 v -9.090918 h 1.74253 v 4.824511 L 55.88205,43.49319 h 2.145606 l -2.251026,2.406055 2.412256,4.17959 h -1.878955 l -1.655713,-2.957959 -0.812353,0.84956 v 2.108399 z"
         id="path6102"
         inkscape:label="k" /><g
         id="g6111"
         inkscape:label="Hz"><path
           d="m 59.243088,50.078835 v -9.090918 h 1.835547 v 3.578076 h 3.596679 v -3.578076 h 1.835547 v 9.090918 h -1.835547 v -3.974952 h -3.596679 v 3.974952 z"
           id="path6104" /><path
           d="m 67.695284,50.078835 v -1.358057 l 2.468066,-2.833936 q 0.607715,-0.694531 0.89917,-0.985986 -0.303858,0.0186 -0.799951,0.02481 l -2.32544,0.0124 V 43.49319 h 5.444629 v 1.234033 l -2.517676,2.902149 -0.886767,0.961181 q 0.725537,-0.04341 0.89917,-0.04341 h 2.697509 v 1.53169 z"
           id="path6106" /></g><g
         id="g6118"
         inkscape:label="f10"><path
           d="m 35.058516,50.078835 h -1.742529 v -6.567041 q -0.954981,0.892968 -2.251026,1.320849 v -1.581299 q 0.682129,-0.223242 1.48208,-0.843359 0.799951,-0.626318 1.097608,-1.457275 h 1.413867 z"
           id="path6116"
           inkscape:label="1" /><path
           d="m 40.608565,40.95071 q 1.32085,0 2.06499,0.942578 0.886768,1.116211 0.886768,3.702099 0,2.579688 -0.892969,3.708301 -0.737939,0.930176 -2.058789,0.930176 -1.327051,0 -2.139404,-1.016992 -0.812354,-1.023194 -0.812354,-3.640088 0,-2.567285 0.892969,-3.695899 0.737939,-0.930175 2.058789,-0.930175 z m 0,1.444873 q -0.31626,0 -0.564307,0.204638 -0.248046,0.198438 -0.384472,0.719336 -0.179834,0.675928 -0.179834,2.27583 0,1.599903 0.16123,2.201416 0.161231,0.595313 0.403076,0.79375 0.248047,0.198438 0.564307,0.198438 0.31626,0 0.564307,-0.198438 0.248047,-0.204638 0.384472,-0.725537 0.179834,-0.669726 0.179834,-2.269629 0,-1.599902 -0.16123,-2.195214 -0.161231,-0.601514 -0.409277,-0.799952 -0.241846,-0.204638 -0.558106,-0.204638 z"
           id="path6098"
           style="display:inline;font-weight:bold;font-size:12.7px;font-family:Arial;-inkscape-font-specification:'Arial, Bold';fill:#1a1a1a;stroke:#ffffff;stroke-width:0"
           inkscape:label="0" /></g><g
         id="g6125"
         inkscape:label="f100"><path
           d="m 35.058516,50.078835 h -1.742529 v -6.567041 q -0.954981,0.892968 -2.251026,1.320849 v -1.581299 q 0.682129,-0.223242 1.48208,-0.843359 0.799951,-0.626318 1.097608,-1.457275 h 1.413867 z"
           id="path6121"
           inkscape:label="1" /><path
           d="m 40.608565,40.95071 q 1.32085,0 2.06499,0.942578 0.886768,1.116211 0.886768,3.702099 0,2.579688 -0.892969,3.708301 -0.737939,0.930176 -2.058789,0.930176 -1.327051,0 -2.139404,-1.016992 -0.812354,-1.023194 -0.812354,-3.640088 0,-2.567285 0.892969,-3.695899 0.737939,-0.930175 2.058789,-0.930175 z m 0,1.444873 q -0.31626,0 -0.564307,0.204638 -0.248046,0.198438 -0.384472,0.719336 -0.179834,0.675928 -0.179834,2.27583 0,1.599903 0.16123,2.201416 0.161231,0.595313 0.403076,0.79375 0.248047,0.198438 0.564307,0.198438 0.31626,0 0.564307,-0.198438 0.248047,-0.204638 0.384472,-0.725537 0.179834,-0.669726 0.179834,-2.269629 0,-1.599902 -0.16123,-2.195214 -0.161231,-0.601514 -0.409277,-0.799952 -0.241846,-0.204638 -0.558106,-0.204638 z"
           id="path6123"
           style="display:inline;font-weight:bold;font-size:12.7px;font-family:Arial;-inkscape-font-specification:'Arial, Bold';fill:#1a1a1a;stroke:#ffffff;stroke-width:0"
           inkscape:label="0" /><path
           d="m 47.6717,40.95071 q 1.32085,0 2.06499,0.942578 0.886768,1.116211 0.886768,3.702099 0,2.579688 -0.892969,3.708301 -0.737939,0.930176 -2.058789,0.930176 -1.327051,0 -2.139404,-1.016992 -0.812354,-1.023194 -0.812354,-3.640088 0,-2.567285 0.892969,-3.695899 0.73794,-0.930175 2.058789,-0.930175 z m 0,1.444873 q -0.31626,0 -0.564306,0.204638 -0.248047,0.198438 -0.384473,0.719336 -0.179834,0.675928 -0.179834,2.27583 0,1.599903 0.16123,2.201416 0.161231,0.595313 0.403077,0.79375 0.248046,0.198438 0.564306,0.198438 0.31626,0 0.564307,-0.198438 0.248047,-0.204638 0.384473,-0.725537 0.179833,-0.669726 0.179833,-2.269629 0,-1.599902 -0.16123,-2.195214 -0.16123,-0.601514 -0.409277,-0.799952 Q 47.98796,42.395583 47.6717,42.395583 Z"
           id="path6100"
           inkscape:label="0"
           style="display:inline;font-weight:bold;font-size:12.7px;font-family:Arial;-inkscape-font-specification:'Arial, Bold';fill:#1a1a1a;stroke:#ffffff;stroke-width:0" /></g></g></g></svg>
